<?xml version="1.0" encoding="UTF-8"?>
<svg version="1.1" xmlns="http://www.w3.org/2000/svg" width="1024" height="1024">
<path d="M0 0 C337.92 0 675.84 0 1024 0 C1024 337.92 1024 675.84 1024 1024 C686.08 1024 348.16 1024 0 1024 C0 686.08 0 348.16 0 0 Z " fill="#2B2E37" transform="translate(0,0)"/>
<path d="M0 0 C7.38841478 -0.04361348 14.7767431 -0.07224251 22.16526985 -0.08653736 C23.0972419 -0.08930683 24.02921394 -0.0920763 24.98942757 -0.0949297 C34.48229557 -0.11598506 43.94765002 0.03576388 53.43089485 0.48377514 C54.27367989 0.52251751 55.11646492 0.56125988 55.98478889 0.60117626 C57.16129005 0.66318722 57.16129005 0.66318722 58.36155891 0.72645092 C59.04961617 0.76231304 59.73767342 0.79817516 60.44658089 0.83512402 C62.50959912 1.04820556 64.41774958 1.48894737 66.41526985 2.03846264 C66.31370735 3.74158764 66.31370735 3.74158764 65.41526985 6.03846264 C63.31891238 7.77460094 61.29116967 9.28247126 59.04026985 10.78846264 C57.75366743 11.68018187 56.46721062 12.57211122 55.18089485 13.46424389 C53.92593699 14.32268309 52.67074419 15.18077897 51.41526985 16.03846264 C32.45713116 28.65764841 32.45713116 28.65764841 20.89183235 47.26502514 C20.68054932 51.60445355 21.60786278 54.77824798 24.41526985 58.03846264 C29.08788925 61.496201 32.43150968 62.48247665 38.20433235 62.47205639 C43.58079804 61.41766117 46.761854 57.7976274 50.35276985 53.91346264 C65.96465389 37.81562633 88.94263724 28.07097661 111.22776985 27.47596264 C127.8206102 27.5031975 144.68550921 32.08583065 159.11058235 40.20643139 C165.85231632 43.9438702 170.73212806 45.94522775 178.41526985 44.03846264 C180.422788 43.05364241 182.42461444 42.0569375 184.41526985 41.03846264 C188.28670366 41.15577881 190.56271899 43.59938547 193.41526985 46.03846264 C205.36673095 59.07085793 214.1710669 76.08811926 218.86942482 93.07287121 C219.38738583 94.9380521 219.92819072 96.79684501 220.47026253 98.65516186 C224.17675938 112.42719448 224.02699974 126.22802594 224.0227747 140.39852047 C224.02596585 143.94337509 224.05173833 147.48807611 224.07475471 151.0328474 C224.11507604 157.75619104 224.13557854 164.479439 224.14872861 171.20288467 C224.16444738 178.72945654 224.20300042 186.25585469 224.24329615 193.78232861 C224.3147544 207.23584403 224.36139066 220.68928229 224.38927269 234.14295483 C224.40312557 240.69637298 224.42292355 247.24963904 224.45900536 253.80297375 C224.47620305 256.99833185 224.48875074 260.19369519 224.5000248 263.38907909 C224.5085286 265.36199162 224.52308458 267.33487537 224.53801155 269.30774975 C224.56313554 280.06837285 223.42550182 290.47824621 221.41526985 301.03846264 C221.2760511 301.81496166 221.13683235 302.59146069 220.99339485 303.39148998 C216.55744734 327.73272512 206.41315937 349.45922423 191.41526985 369.03846264 C190.77847298 369.89955639 190.1416761 370.76065014 189.48558235 371.64783764 C178.23241331 386.20012853 164.37770714 399.39138825 149.41526985 410.03846264 C148.29443807 410.90486228 147.17738389 411.77616591 146.06370735 412.65174389 C128.24912355 426.49111156 107.44104565 436.88214998 85.73558235 443.01893139 C82.86583284 443.9001133 80.12555057 444.9127892 77.3254261 445.98768139 C71.22893459 448.22460894 65.10494195 449.50189265 58.72776985 450.66346264 C57.14318977 450.96897045 57.14318977 450.96897045 55.52659798 451.28065014 C38.84722474 454.40991319 22.7339005 455.48098725 5.79026985 455.47596264 C4.17003914 455.47706539 4.17003914 455.47706539 2.51707649 455.47819042 C-15.35068898 455.44632851 -32.1581349 454.24551568 -49.58473015 450.03846264 C-50.67527702 449.7814558 -51.7658239 449.52444897 -52.88941765 449.25965405 C-72.72848266 444.46187541 -91.95574953 437.40487126 -109.58473015 427.03846264 C-110.70162224 426.39868481 -110.70162224 426.39868481 -111.8410778 425.74598217 C-122.49701851 419.63920364 -132.58380754 413.27142072 -141.99635124 405.36658764 C-143.54677944 404.07019517 -145.12218908 402.80386576 -146.6980114 401.53846264 C-161.53351475 389.52038426 -175.04071936 375.98849361 -185.58473015 360.03846264 C-186.29758171 358.9981892 -187.01043327 357.95791576 -187.7448864 356.88611889 C-195.47919955 345.06856527 -200.50631065 331.84412125 -204.89723015 318.47596264 C-205.12748894 317.79453197 -205.35774773 317.11310131 -205.59498405 316.41102123 C-210.28472343 301.42656416 -211.07812377 286.00164046 -211.25660515 270.42908764 C-211.28881769 268.43576929 -211.32177852 266.44246293 -211.35542107 264.44916821 C-211.45736099 257.97914104 -211.52513547 251.50900319 -211.58473015 245.03846264 C-211.59521385 243.92840862 -211.60569756 242.81835461 -211.61649895 241.67466259 C-211.75560011 226.44959474 -211.8129483 211.22505875 -211.82496452 195.99940014 C-211.83051983 189.93856362 -211.85480332 183.87794367 -211.88293648 177.81717587 C-211.90174682 173.02948451 -211.90677727 168.24184483 -211.9083004 163.45411968 C-211.91126548 161.2203984 -211.91907572 158.98667658 -211.93248558 156.75299358 C-212.04771697 136.16463884 -211.48146122 114.79886817 -204.70973015 95.16346264 C-204.38359734 94.14123608 -204.05746452 93.11900951 -203.7214489 92.06580639 C-200.35820454 81.74051535 -196.37992622 71.7069444 -190.83473015 62.35096264 C-190.19446892 61.26379955 -190.19446892 61.26379955 -189.54127312 60.15467358 C-185.94839858 54.25180998 -181.69713032 49.67455223 -176.58473015 45.03846264 C-175.90410515 44.17221264 -175.22348015 43.30596264 -174.52223015 42.41346264 C-172.21990167 39.59125353 -169.64968079 37.37838491 -166.86598015 35.03846264 C-164.54402756 33.06112181 -164.54402756 33.06112181 -162.42848015 30.78846264 C-142.21112052 10.3085399 -108.87642641 0.80912854 -80.72019768 0.54613781 C-79.01098057 0.5393545 -77.30176213 0.532899 -75.59254265 0.52674389 C-73.7732053 0.50971533 -71.95387907 0.49146148 -70.13456535 0.47207165 C-65.31739727 0.42438142 -60.50027961 0.39435165 -55.68295097 0.36850262 C-50.69798499 0.33909471 -45.71315346 0.2943014 -40.72828484 0.25184155 C-30.18035158 0.16540447 -19.63237496 0.10424048 -9.08422661 0.05136395 C-6.05614158 0.0357343 -3.02807183 0.01797718 0 0 Z " fill="#F5F7FA" transform="translate(498.58473014831543,252.96153736114502)"/>
<path d="M0 0 C5.42002894 0.01921679 10.8400163 0.00771088 16.26006365 0.00109458 C25.35591754 -0.00520688 34.45147336 0.01281715 43.54726458 0.04572654 C53.98454442 0.08318316 64.42125945 0.08143979 74.85856903 0.05868536 C84.99697246 0.03755532 95.135172 0.04511393 105.27357149 0.06500411 C109.54318174 0.07288165 113.81261436 0.07113175 118.08221865 0.0609796 C172.73174356 -0.04388144 219.96158777 9.64122121 261.10195208 47.77302146 C261.69492083 48.30024802 262.28788958 48.82747458 262.89882708 49.37067771 C283.95787014 68.97564399 296.25055402 98.48346522 303.10195208 125.77302146 C303.37531389 126.85341697 303.37531389 126.85341697 303.65419817 127.95563865 C306.90687374 141.40003099 306.41111853 155.02541989 306.10195208 168.77302146 C306.65302629 168.8753408 307.20410051 168.97766013 307.77187395 169.08308005 C313.41795666 170.22117107 318.40982131 171.92062481 323.60195208 174.39802146 C324.34098772 174.74993552 325.08002337 175.10184958 325.84145403 175.46442771 C338.60029309 181.77993365 347.47426384 192.34266897 352.13686419 205.7486074 C353.48732716 210.56580811 353.40748164 215.34423904 353.40273333 220.31599021 C353.40916101 221.8232643 353.40916101 221.8232643 353.41571856 223.36098838 C353.42144292 225.4814794 353.42197613 227.60199006 353.4176259 229.72248435 C353.41447901 232.93303902 353.43790415 236.14265947 353.4632802 239.35309958 C353.52385314 258.85663497 351.03476106 273.63847018 336.93398333 288.07380271 C333.25000046 291.58501948 329.54931595 294.32117042 325.10195208 296.77302146 C324.28855364 297.23321677 323.4751552 297.69341208 322.63710833 298.16755271 C317.19394781 301.07784038 312.17469112 302.69560002 306.10195208 303.77302146 C306.13675676 305.40497458 306.13675676 305.40497458 306.17226458 307.06989646 C306.19105404 308.55426447 306.20925076 310.03864007 306.22695208 311.52302146 C306.24370989 312.2332949 306.2604677 312.94356833 306.27773333 313.67536521 C306.47789643 336.29379635 297.25338913 359.46129531 288.10195208 379.77302146 C287.77082415 380.513749 287.43969622 381.25447654 287.09853411 382.01765037 C280.34547003 396.89908513 271.33662547 409.91539294 260.10195208 421.77302146 C258.95007056 423.10113319 257.8039702 424.43428689 256.66445208 425.77302146 C246.79044092 437.05436294 235.41550045 446.21013493 223.65029192 455.40119529 C219.04334162 459.00774714 214.50494176 462.69305764 209.97695208 466.39802146 C204.44406298 470.91899768 198.83474554 475.27984663 193.09413958 479.53474021 C184.2013124 486.18694644 175.59264575 493.16612518 167.09413958 500.31208396 C164.00339121 502.85408326 160.85187029 505.29223388 157.66445208 507.71052146 C152.62497352 511.53541428 147.78237836 515.54125217 142.98378801 519.66291404 C139.22203197 522.87537207 135.36126823 525.91686005 131.41445208 528.89802146 C126.54002127 532.58446831 121.97363147 536.5068711 117.47304583 540.64020896 C114.41373894 543.39207314 111.2196526 545.93772215 107.98867083 548.48395896 C105.08922832 550.78311093 102.2213798 553.11727583 99.35659075 555.45930076 C91.70990288 561.70615796 84.01343368 567.86336831 76.10195208 573.77302146 C75.25761614 574.41626365 74.4132802 575.05950583 73.54335833 575.72224021 C70.17070101 578.16215587 67.70422654 579.64396265 63.60195208 580.52302146 C58.49572036 579.42882895 55.20774234 576.92383532 51.10195208 573.77302146 C50.58713274 573.38146873 50.0723134 572.98991599 49.54189348 572.58649802 C42.42611345 567.1576217 35.51806619 561.49931877 28.71401262 555.6861074 C25.57632971 553.00746917 22.40228035 550.39197967 19.16445208 547.83552146 C15.13393836 544.64496941 11.23685007 541.32469709 7.35195208 537.96052146 C2.17697798 533.48775003 -3.09987516 529.18765038 -8.50205183 524.99299216 C-13.06572199 521.44551615 -17.55090788 517.80998736 -22.02304792 514.14802146 C-27.53744762 509.6407132 -33.1386789 505.29658055 -38.86679792 501.06208396 C-42.29272523 498.47497906 -45.62550771 495.78791012 -48.96054792 493.08552146 C-55.49564275 487.80314959 -62.21311347 482.80074937 -68.99448347 477.84016013 C-74.50630738 473.80683334 -79.9494202 469.70660304 -85.33945417 465.51130271 C-88.13239385 463.3459347 -90.96189245 461.23374196 -93.80039167 459.12849021 C-104.52105735 451.14115816 -114.61776356 442.87732623 -124.1460948 433.49421287 C-125.80343376 431.86597434 -127.48000107 430.26066751 -129.16367292 428.65974021 C-158.08455728 400.8754247 -179.69612966 359.11719165 -182.89804792 318.77302146 C-182.96837016 314.43815807 -182.95752075 310.10792978 -182.89804792 305.77302146 C-184.53773542 305.46364646 -184.53773542 305.46364646 -186.21054792 305.14802146 C-201.77477562 301.23630406 -215.20854657 288.98267895 -223.29648542 275.55817771 C-223.82500105 274.63907615 -224.35351667 273.71997458 -224.89804792 272.77302146 C-225.38531355 271.9467324 -225.87257917 271.12044333 -226.37461042 270.26911521 C-232.37678058 259.33533741 -232.24766614 247.30570272 -232.21372175 235.14606833 C-232.21055253 232.77646292 -232.23414304 230.40809951 -232.25937605 228.03864646 C-232.32963599 211.2265399 -229.00883332 198.57566293 -217.26132917 186.11677146 C-211.36567796 180.26984463 -205.13134146 176.16947355 -197.77304792 172.39802146 C-197.10394392 172.05174705 -196.43483992 171.70547263 -195.74546003 171.34870505 C-191.41862146 169.22022695 -187.70340311 168.20987193 -182.89804792 167.77302146 C-182.92423201 167.1309072 -182.95041609 166.48879294 -182.97739363 165.82722068 C-183.53156111 150.02713411 -182.3537406 135.94780608 -177.89804792 120.77302146 C-177.63572371 119.87035544 -177.37339949 118.96768943 -177.10312605 118.0376699 C-164.67347222 76.20309159 -136.39452286 40.6999168 -98.14804792 19.52302146 C-88.32518416 14.24700376 -78.53023043 10.08496227 -67.89804792 6.77302146 C-67.07374659 6.50863461 -66.24944525 6.24424777 -65.40016508 5.9718492 C-43.89540118 -0.67059952 -22.26674253 -0.10024357 0 0 Z M43.97707415 27.79908347 C33.30411727 27.85318172 22.63139141 27.92104373 11.95867968 28.01195121 C6.98932121 28.05424056 2.02002956 28.0922423 -2.94943953 28.11890769 C-7.70355174 28.14490805 -12.45734246 28.18541574 -17.21125364 28.23608184 C-18.97646005 28.25260375 -20.74171959 28.26431274 -22.50699186 28.2706697 C-51.88815363 28.38727376 -85.52720648 37.36196525 -106.87558699 58.61896873 C-108.22073192 59.99945222 -109.55963377 61.38601133 -110.89804792 62.77302146 C-112.29979418 63.99863206 -113.71466476 65.20956591 -115.14804792 66.39802146 C-122.59843566 72.8738859 -128.80515356 80.33908829 -133.89804792 88.77302146 C-134.59800886 89.88934958 -135.2979698 91.00567771 -136.01914167 92.15583396 C-142.48024397 102.78623299 -146.39822201 113.87726136 -149.89804792 125.77302146 C-150.14386232 126.59093539 -150.38967672 127.40884933 -150.64294004 128.25154853 C-152.61731012 135.09463461 -153.78185282 141.82594235 -154.56504011 148.89899802 C-154.691513 150.02703975 -154.8179859 151.15508147 -154.9482913 152.31730628 C-156.17941568 164.13968854 -156.29746021 175.88306269 -156.22617292 187.75739646 C-156.22309482 190.07626319 -156.22123436 192.39513181 -156.22049665 194.71400046 C-156.21594022 199.54429479 -156.20171918 204.37441812 -156.17929792 209.20466208 C-156.15133473 215.24330457 -156.14022796 221.28181385 -156.13543653 227.32051444 C-156.12361514 241.35389038 -156.05011716 255.3861 -155.92658186 269.418926 C-155.89834282 272.73835756 -155.87465647 276.05779964 -155.85141706 279.37726951 C-155.8120866 284.60363637 -155.7505927 289.82932966 -155.67242384 295.05525565 C-155.64642377 296.95379608 -155.62632516 298.85242973 -155.61311293 300.75110221 C-155.47920034 318.34257391 -152.9815013 335.42507197 -147.14804792 352.08552146 C-146.8037071 353.08768699 -146.45936628 354.08985251 -146.10459089 355.12238669 C-134.42800837 388.19541728 -110.90066577 415.15040388 -82.89804792 435.77302146 C-81.95445417 436.52325583 -81.01086042 437.27349021 -80.03867292 438.04645896 C-71.9358239 444.4257738 -63.19593877 449.48155784 -54.2007823 454.49030662 C-52.11912557 455.6498724 -50.04729229 456.82526054 -47.97617292 458.00349021 C-29.46266814 468.38593069 -9.43143776 473.88873129 11.10195208 478.77302146 C12.58985247 479.13967917 12.58985247 479.13967917 14.10781145 479.51374412 C29.51553384 483.16394586 45.03946793 483.15621778 60.78945208 483.21052146 C62.34413698 483.22018943 62.34413698 483.22018943 63.93022966 483.23005271 C78.55554401 483.28560781 92.67698317 482.18569105 107.10195208 479.77302146 C108.93971209 479.4671511 108.93971209 479.4671511 110.81459856 479.15510154 C113.71449009 478.63714233 116.59526455 478.07104409 119.47695208 477.46052146 C120.47533098 477.25032371 121.47370989 477.04012595 122.5023427 476.82355857 C130.40384893 475.08189033 137.77470045 472.63773494 145.23085833 469.53034568 C147.16195604 468.74873488 149.10755521 468.03638312 151.07070208 467.33942771 C160.81858645 463.871544 169.97641593 459.64121279 179.10195208 454.77302146 C179.71312883 454.45075583 180.32430559 454.12849021 180.95400286 453.79645896 C190.08082925 448.94590688 198.06116678 443.22262233 206.10195208 436.77302146 C207.66301849 435.58363752 209.22536718 434.39593317 210.78945208 433.21052146 C215.78144986 429.29982284 220.49613671 425.12936124 225.10195208 420.77302146 C225.69959368 420.20937888 226.29723528 419.6457363 226.91298723 419.06501365 C251.34396942 395.83395753 268.66255067 368.2326974 275.72695208 335.02302146 C275.93328264 334.05968894 276.13961321 333.09635642 276.35219622 332.10383201 C279.01966053 319.06109032 280.4138619 306.26197415 280.24257708 292.96052146 C280.2324948 291.54719861 280.22354402 290.13386737 280.2155385 288.72053123 C280.19567674 285.39357906 280.17026229 282.06671526 280.14272356 278.73981833 C280.09015127 271.80823958 280.07837604 264.87664304 280.0648427 257.94489646 C280.03865775 245.05797224 279.98700052 232.17132197 279.918015 219.2845571 C279.87811501 211.74294626 279.84570644 204.20144589 279.83095598 196.65974021 C279.81786091 189.97176832 279.79076354 183.28401924 279.74733901 176.59617305 C279.7250274 173.09165263 279.7090233 169.58740318 279.71006823 166.0828054 C279.70921981 133.80236392 273.27304735 101.65499301 251.10195208 76.77302146 C250.40843645 75.90161521 249.71492083 75.03020896 249.00038958 74.13239646 C247.15405093 71.83776983 245.66825048 70.21656431 243.10195208 68.77302146 C240.33067663 69.25299494 237.96690251 70.25289695 235.41445208 71.39802146 C229.94828465 73.38662716 225.66437425 73.32309751 220.26943254 70.97565818 C216.81715067 69.33693266 213.4378047 67.57951275 210.06679583 65.78083396 C190.76024667 55.71145974 166.99712508 52.16637821 146.01601458 58.44489646 C128.5710331 64.15160907 114.49223947 73.09768317 101.66445208 86.27302146 C97.8974976 89.94809899 94.56418222 90.17399921 89.52382708 90.12458396 C85.41758015 89.52851586 82.14673867 87.54764713 79.10195208 84.77302146 C76.74249888 80.90786459 76.12219558 77.19331822 77.10195208 72.77302146 C84.97955669 57.68824666 100.51273701 47.55726745 114.44570208 38.56208396 C117.14345966 36.74506488 119.69378816 34.96305458 122.10195208 32.77302146 C122.10195208 31.78302146 122.10195208 30.79302146 122.10195208 29.77302146 C119.38709638 29.02616814 116.85823442 28.60746895 114.04824114 28.46100974 C112.87173998 28.39899879 112.87173998 28.39899879 111.67147112 28.33573508 C110.82868608 28.29699271 109.98590105 28.25825034 109.11757708 28.21833396 C108.22758013 28.17628837 107.33758318 28.13424277 106.42061663 28.09092307 C96.89638196 27.67334055 87.3838225 27.61969633 77.85195208 27.64802146 C76.39187731 27.65084632 76.39187731 27.65084632 74.90230608 27.65372825 C67.80074681 27.66919472 60.69936825 27.7047993 53.59792376 27.74695945 C50.39098073 27.76593034 47.18403298 27.78300739 43.97707415 27.79908347 Z " fill="#1B242F" transform="translate(442.89804792404175,225.22697854042053)"/>
<path d="M0 0 C1.85752967 -0.00463682 3.7150584 -0.00966262 5.57258606 -0.01504517 C10.59391252 -0.0280917 15.61522566 -0.03459939 20.6365664 -0.03905582 C23.78480914 -0.04200031 26.93304835 -0.04610771 30.08128929 -0.05056 C39.9633839 -0.06421717 49.84547031 -0.07389141 59.72757369 -0.07776189 C71.07474754 -0.08223245 82.42180033 -0.09974128 93.76893741 -0.12876248 C102.57877443 -0.15049964 111.3885777 -0.16047261 120.19844121 -0.16180301 C125.44163544 -0.16284285 130.68471562 -0.16857286 135.92788124 -0.18662262 C177.84448054 -0.3226732 177.84448054 -0.3226732 195.4753418 3.16113281 C197.21938352 3.4857809 198.96351081 3.80996958 200.7077179 4.13372803 C216.17785697 7.03161148 230.42429379 12.12283181 244.4753418 19.16113281 C245.09940918 19.46921875 245.72347656 19.77730469 246.36645508 20.09472656 C256.08411619 24.92474735 264.84784058 30.59188772 273.4753418 37.16113281 C274.35061523 37.81082031 275.22588867 38.46050781 276.12768555 39.12988281 C296.51180064 54.95976572 311.38304626 74.32222641 324.38500977 96.33154297 C325.26685931 97.81129677 326.18247622 99.27089401 327.1081543 100.72363281 C328.87338016 103.87077835 330.11967681 107.15518957 331.3503418 110.53613281 C331.60936279 111.24310303 331.86838379 111.95007324 332.13525391 112.6784668 C332.6667413 114.13846999 333.19498191 115.59965919 333.7199707 117.06201172 C334.40195533 118.95719719 335.099813 120.84665244 335.79956055 122.73535156 C341.8718211 139.84112025 345.49648767 156.98473624 344.4753418 175.16113281 C345.35061523 175.43054688 346.22588867 175.69996094 347.12768555 175.97753906 C363.6426074 181.8165371 376.34941565 193.98218419 384.4753418 209.16113281 C386.0211368 212.44263477 387.33778137 215.71898106 388.4753418 219.16113281 C388.79809082 220.06766602 389.12083984 220.97419922 389.45336914 221.90820312 C392.89765627 232.87133781 392.84575509 244.5261725 392.7878418 255.91113281 C392.78510757 257.02865936 392.78510757 257.02865936 392.78231812 258.16876221 C392.67605793 283.98341062 387.19911107 307.18300964 368.4206543 326.24707031 C361.00405288 333.13579974 352.81137651 338.32298521 343.4753418 342.16113281 C343.37737305 343.20269531 343.2794043 344.24425781 343.1784668 345.31738281 C337.91359782 397.36542396 310.35225977 445.56790914 270.83081055 479.42675781 C269.03392656 480.88952135 267.22903188 482.34249278 265.41674805 483.78613281 C262.07677671 486.48294898 258.84104947 489.28426378 255.6003418 492.09863281 C250.57920727 496.44012239 245.44592679 500.57508252 240.15722656 504.58496094 C235.793241 507.89598302 231.55930834 511.34320305 227.3347168 514.82910156 C224.18415376 517.39861814 220.99184602 519.90888562 217.7878418 522.41113281 C212.63578205 526.43709036 207.54081058 530.52680293 202.4753418 534.66113281 C197.51297778 538.710926 192.52345812 542.71873261 187.4753418 546.66113281 C176.58522996 555.17835641 165.8732637 563.89438374 155.40625 572.92700195 C151.16453984 576.58444119 146.86107022 580.15600912 142.5144043 583.68847656 C138.67692558 586.81074395 134.85698012 589.95397823 131.0378418 593.09863281 C130.30364014 593.70199463 129.56943848 594.30535645 128.81298828 594.92700195 C125.58178867 597.58555659 122.35742488 600.24948676 119.17456055 602.96582031 C94.27763009 624.13645522 94.27763009 624.13645522 76.92456055 623.53613281 C61.75895073 621.88732359 50.192589 611.23319865 39.12524414 601.59326172 C36.38738495 599.21677726 33.61882231 596.87679831 30.8503418 594.53613281 C30.30901611 594.07746826 29.76769043 593.61880371 29.20996094 593.14624023 C24.9448924 589.53911888 20.6245256 586.00304511 16.29174805 582.47753906 C13.13748543 579.88325649 10.02347136 577.24488787 6.9128418 574.59863281 C1.51505201 570.0129486 -3.9735603 565.5604179 -9.5246582 561.16113281 C-10.67886823 560.23735814 -11.83247166 559.31282524 -12.9855957 558.38769531 C-20.88084151 552.05374959 -28.81335338 545.77011415 -36.78198242 539.52880859 C-38.55452634 538.13769189 -40.32327255 536.74187577 -42.09106445 535.34472656 C-47.51677862 531.06091609 -52.95642025 526.8222695 -58.5246582 522.72363281 C-62.88919417 519.48042032 -67.00441039 516.05596374 -71.0871582 512.47363281 C-76.51778197 507.71648589 -82.1774207 503.39337471 -88.0246582 499.16113281 C-96.22945149 493.20943548 -103.98260457 486.92857208 -111.5246582 480.16113281 C-112.04608398 479.69610352 -112.56750977 479.23107422 -113.10473633 478.75195312 C-123.11573637 469.79968838 -132.97179132 460.53908844 -141.5246582 450.16113281 C-141.92652344 449.67837891 -142.32838867 449.195625 -142.74243164 448.69824219 C-149.47264055 440.56693062 -155.31239254 432.19934407 -160.48803711 422.99951172 C-161.4655733 421.26591598 -162.46894047 419.54695891 -163.47387695 417.82910156 C-176.36428609 394.95058636 -187.43095508 367.77282062 -187.5246582 341.16113281 C-188.21430664 341.07476563 -188.90395508 340.98839844 -189.61450195 340.89941406 C-204.75479633 337.05845348 -217.40386083 322.0508193 -225.14306641 309.30004883 C-234.67047597 292.83473076 -238.05070695 276.22721838 -237.86083984 257.36401367 C-237.83702494 254.83447833 -237.8403331 252.30598812 -237.84692383 249.77636719 C-237.84135135 248.13768914 -237.83424419 246.49901543 -237.82543945 244.86035156 C-237.82635086 244.11951828 -237.82726227 243.378685 -237.82820129 242.61540222 C-237.59555798 225.16666222 -229.89856096 204.91191099 -217.8762207 192.28613281 C-209.52113025 184.73601786 -198.14364904 176.16113281 -186.5246582 176.16113281 C-186.55946289 174.99839844 -186.59426758 173.83566406 -186.63012695 172.63769531 C-187.48537029 132.30084546 -170.20869342 91.95141926 -142.9753418 62.39428711 C-140.17104086 59.46861495 -137.33346269 56.58327227 -134.4621582 53.72363281 C-133.9564328 53.21845123 -133.4507074 52.71326965 -132.92965698 52.19277954 C-125.54117372 44.84066909 -118.06852614 37.97046681 -109.28735352 32.29980469 C-107.44696123 31.11094186 -105.63941991 29.87995006 -103.8293457 28.64550781 C-72.69346637 7.85645523 -36.92040707 0.0216032 0 0 Z M-51.5246582 29.16113281 C-52.48306484 29.47449963 -53.44147148 29.78786644 -54.42892075 30.11072922 C-72.58892322 36.16813284 -89.74982458 44.90932405 -104.5246582 57.16113281 C-105.36287109 57.84344971 -105.36287109 57.84344971 -106.21801758 58.53955078 C-135.275479 82.24974217 -153.27157615 112.55994041 -162.82446289 148.54248047 C-163.39532503 150.67744116 -164.00514772 152.80195339 -164.6262207 154.92285156 C-167.64095536 166.37602576 -166.79446739 178.41405611 -166.5246582 190.16113281 C-167.07645752 190.25837646 -167.62825684 190.35562012 -168.19677734 190.45581055 C-173.97620076 191.58986063 -178.79705861 193.42043914 -183.9621582 196.22363281 C-185.06793213 196.81917969 -185.06793213 196.81917969 -186.19604492 197.42675781 C-200.06731982 205.15299395 -210.08531597 216.58571219 -214.61450195 231.82910156 C-216.06762599 238.64022658 -215.82208248 245.63096896 -215.78540039 252.56176758 C-215.77472881 254.95777981 -215.78531316 257.35303471 -215.7980957 259.74902344 C-215.81983931 279.49477551 -212.04842383 294.16967169 -198.5246582 309.16113281 C-197.61973633 310.20527344 -197.61973633 310.20527344 -196.6965332 311.27050781 C-189.12384027 319.4795615 -179.30715344 325.33293734 -168.5246582 328.16113281 C-167.8646582 328.16113281 -167.2046582 328.16113281 -166.5246582 328.16113281 C-166.55946289 328.91394531 -166.59426758 329.66675781 -166.63012695 330.44238281 C-166.86737072 339.75137643 -165.4675752 348.12155187 -163.5246582 357.16113281 C-163.34290039 358.16015625 -163.16114258 359.15917969 -162.97387695 360.18847656 C-153.43892419 408.51187661 -121.29853788 448.60980405 -82.7746582 477.66113281 C-81.86143799 478.35327881 -80.94821777 479.0454248 -80.00732422 479.75854492 C-68.79155701 488.2497249 -57.53982613 496.69416608 -46.24731445 505.08300781 C-38.088884 511.15446841 -30.04317375 517.25928672 -22.29418945 523.84863281 C-19.34899372 526.30780894 -16.32861317 528.65264553 -13.2746582 530.97363281 C-6.1542457 536.38959928 0.76133619 542.0482806 7.68920898 547.70703125 C10.04338456 549.62357987 12.41371967 551.51937201 14.7878418 553.41113281 C22.40086324 559.49141616 29.91853887 565.66292963 37.2878418 572.03613281 C43.59942886 577.48320173 50.09110425 582.65863015 56.68139648 587.76269531 C58.57321404 589.23742734 60.45125533 590.72839982 62.3269043 592.22363281 C63.27436523 592.97664673 63.27436523 592.97664673 64.2409668 593.74487305 C65.44871439 594.70539395 66.65455859 595.66831481 67.8581543 596.6340332 C71.73058419 599.70218041 74.72829852 601.84666502 79.6003418 602.72363281 C85.42558354 601.8780332 88.91745875 598.7436664 93.4753418 595.16113281 C94.53870236 594.34154924 95.60252421 593.52256387 96.66674805 592.70410156 C105.0312392 586.22871715 113.21790076 579.5284371 121.41235352 572.84033203 C123.51332028 571.13021967 125.62036521 569.42787716 127.72924805 567.72753906 C136.08123603 561.01039532 136.08123603 561.01039532 144.1628418 553.97363281 C148.06273418 550.43634902 152.20150173 547.25866553 156.39575195 544.08447266 C160.38851773 541.04506504 164.23331654 537.8696801 168.0378418 534.59863281 C173.02050869 530.31893643 178.17006498 526.35991665 183.4597168 522.46191406 C186.64978435 520.02804128 189.68898345 517.46891822 192.7253418 514.84863281 C198.10356118 510.21797456 203.68566821 505.93723007 209.38793945 501.71484375 C215.31150257 497.31788448 221.06950044 492.73686323 226.8112793 488.10644531 C230.42277879 485.19456573 234.07083634 482.33121966 237.7253418 479.47363281 C248.0082473 471.40583654 257.96314483 463.12557687 267.4753418 454.16113281 C268.2075293 453.47148438 268.9397168 452.78183594 269.6940918 452.07128906 C277.20065413 444.78813632 283.55872973 436.56667156 289.6628418 428.09863281 C290.05455566 427.55770996 290.44626953 427.01678711 290.84985352 426.45947266 C296.78337178 418.10097284 301.5216762 409.39794855 305.5378418 399.97363281 C305.97193359 398.96115479 306.40602539 397.94867676 306.85327148 396.90551758 C310.1572719 389.1035768 313.12100317 381.30699353 315.4753418 373.16113281 C315.72799805 372.29004883 315.9806543 371.41896484 316.2409668 370.52148438 C317.08210981 367.59236255 317.90755839 364.65935885 318.7253418 361.72363281 C318.98412109 360.79929443 319.24290039 359.87495605 319.50952148 358.92260742 C321.76660778 350.60619365 322.63486394 342.77371409 322.5378418 334.16113281 C322.53107422 332.99904297 322.53107422 332.99904297 322.52416992 331.81347656 C322.51253937 329.92932758 322.49461086 328.04521916 322.4753418 326.16113281 C323.6715918 325.97550781 324.8678418 325.78988281 326.1003418 325.59863281 C341.6082808 322.04422293 354.46273104 311.90240003 363.0769043 298.70800781 C368.39142235 289.02905314 369.63002206 279.57437467 369.71362305 268.71582031 C369.72169479 267.70955597 369.72976654 266.70329163 369.73808289 265.66653442 C369.75187929 263.54007669 369.7626212 261.41359723 369.77050781 259.28710938 C369.78200688 257.130467 369.80242559 254.97385263 369.83203125 252.81738281 C370.04565975 237.2356305 370.15977489 224.46754009 359.4753418 212.16113281 C358.68836914 211.1440625 358.68836914 211.1440625 357.88549805 210.10644531 C349.74916847 199.95996372 335.30898461 192.81395045 322.4753418 191.16113281 C322.50152588 190.50443604 322.52770996 189.84773926 322.5546875 189.17114258 C324.07630133 144.69764457 308.86909109 104.44077141 279.06518555 71.49707031 C257.02083583 48.42198932 228.27205771 34.40362433 197.4753418 27.16113281 C196.72560467 26.98096745 195.97586754 26.80080208 195.2034111 26.61517715 C174.32111871 21.8262825 153.00281899 22.53679788 131.71421862 22.55796766 C127.38848545 22.56013424 123.06280928 22.55027241 118.73708856 22.54075682 C108.51502904 22.51870643 98.2931166 22.51761285 88.07104492 22.52978516 C77.6030615 22.54186041 67.13561601 22.51722161 56.66772425 22.47464502 C47.60615283 22.43917388 38.5447508 22.42744734 29.48311269 22.4339205 C24.10350754 22.43750786 18.72428644 22.43266516 13.34474564 22.40449142 C-19.52291995 22.22372068 -19.52291995 22.22372068 -51.5246582 29.16113281 Z " fill="#F4F7F9" transform="translate(426.524658203125,202.8388671875)"/>
<path d="M0 0 C0.33 0 0.66 0 1 0 C3.38178784 66.98144856 3.38178784 66.98144856 -1 90 C-1.20882812 91.16474854 -1.20882812 91.16474854 -1.421875 92.35302734 C-5.85782251 116.69426249 -16.00211048 138.42076159 -31 158 C-31.63679688 158.86109375 -32.27359375 159.7221875 -32.9296875 160.609375 C-44.18285654 175.16166589 -58.03756271 188.35292561 -73 199 C-74.12083178 199.86639964 -75.23788596 200.73770327 -76.3515625 201.61328125 C-94.1661463 215.45264892 -114.9742242 225.84368734 -136.6796875 231.98046875 C-139.54943702 232.86165066 -142.28971928 233.87432656 -145.08984375 234.94921875 C-151.18633526 237.1861463 -157.31032791 238.46343001 -163.6875 239.625 C-165.27208008 239.93050781 -165.27208008 239.93050781 -166.88867188 240.2421875 C-183.56804511 243.37145055 -199.68136935 244.44252461 -216.625 244.4375 C-218.24523071 244.43860275 -218.24523071 244.43860275 -219.89819336 244.43972778 C-237.76595883 244.40786587 -254.57340475 243.20705304 -272 239 C-273.09054687 238.74299316 -274.18109375 238.48598633 -275.3046875 238.22119141 C-295.14375251 233.42341277 -314.37101939 226.36640862 -332 216 C-333.11689209 215.36022217 -333.11689209 215.36022217 -334.25634766 214.70751953 C-344.91228836 208.600741 -354.99907739 202.23295808 -364.41162109 194.328125 C-365.96204929 193.03173253 -367.53745893 191.76540312 -369.11328125 190.5 C-383.9487846 178.48192162 -397.45598921 164.95003097 -408 149 C-408.71285156 147.95972656 -409.42570312 146.91945313 -410.16015625 145.84765625 C-419.61702075 131.39815037 -425.57691043 114.61618078 -430 98 C-430.26901123 96.99259766 -430.26901123 96.99259766 -430.54345703 95.96484375 C-434.59051393 79.79269186 -433.27757656 62.5321751 -433 46 C-432.57497192 46.92969604 -432.57497192 46.92969604 -432.14135742 47.87817383 C-431.06843777 50.17609882 -431.06843777 50.17609882 -428.73828125 51.94921875 C-424.34789988 56.17240873 -422.50974281 62.31000599 -420.1875 67.8125 C-419.12719463 70.26698754 -418.05750816 72.71735699 -416.98828125 75.16796875 C-416.47475098 76.3492334 -415.9612207 77.53049805 -415.43212891 78.74755859 C-406.99955104 97.89839431 -396.66268483 116.95264865 -382.34765625 132.34375 C-381 134 -381 134 -380 137 C-378.68078181 137.6941798 -377.34540448 138.35804283 -376 139 C-374.89709755 140.06381223 -373.83852893 141.1743634 -372.8125 142.3125 C-366.81291547 148.48092838 -359.8195096 153.45787067 -352.92529297 158.56982422 C-351.4007082 159.70233976 -349.8876761 160.85040561 -348.37890625 162.00390625 C-329.52643978 175.95002673 -306.92412445 185.14474463 -285 193 C-284.23719727 193.28262695 -283.47439453 193.56525391 -282.68847656 193.85644531 C-258.70847406 202.61205771 -230.37025271 205.71638073 -205 204 C-204.06994141 203.938125 -203.13988281 203.87625 -202.18164062 203.8125 C-189.19785097 202.817165 -176.67208889 200.18749761 -164.0625 197.0625 C-163.37591309 196.89355225 -162.68932617 196.72460449 -161.98193359 196.55053711 C-154.33630779 194.64877263 -147.08630133 192.4856687 -140 189 C-138.64842707 188.41068197 -137.29450439 187.82670116 -135.9375 187.25 C-98.8830168 170.72395871 -66.82757635 149.14339209 -44 115 C-43.63874023 114.47003418 -43.27748047 113.94006836 -42.90527344 113.39404297 C-38.13774912 106.38286006 -34.06193658 99.60983806 -31.0703125 91.62109375 C-30 89 -30 89 -28.55078125 86.6328125 C-26.63295599 83.37685727 -25.3500214 79.97448408 -24.0625 76.4375 C-23.80235107 75.73584717 -23.54220215 75.03419434 -23.27416992 74.3112793 C-21.35830948 69.10262626 -19.59931262 63.85257544 -17.95703125 58.55078125 C-17 56 -17 56 -15.57714844 53.80029297 C-13.73580071 50.53090312 -12.75713009 47.24493242 -11.80859375 43.64453125 C-11.52242943 42.59201424 -11.52242943 42.59201424 -11.23048401 41.51823425 C-10.82949556 40.03746005 -10.43217707 38.55568768 -10.03833008 37.07299805 C-9.44340989 34.83473474 -8.8370126 32.5998403 -8.22851562 30.36523438 C-6.38724955 23.55001303 -4.61040043 16.76868576 -3.47680664 9.79174805 C-3 8 -3 8 -1 6 C-0.60235737 4.01178687 -0.26224651 2.01055661 0 0 Z " fill="#D2D9E1" transform="translate(721,464)"/>
<path d="M0 0 C2.49164062 2.15992447 4.77379455 4.38776435 7.01953125 6.80078125 C7.94958984 7.77724609 7.94958984 7.77724609 8.8984375 8.7734375 C12.9050459 13.42540564 15.61587401 18.61859253 18.26953125 24.11328125 C18.59904785 24.78810547 18.92856445 25.46292969 19.26806641 26.15820312 C23.96860367 36.34310126 25.56266597 46.45758918 25.45703125 57.61328125 C25.44873291 58.7518457 25.44043457 59.89041016 25.43188477 61.06347656 C25.25531356 69.88826644 24.29431144 77.53073934 21.01953125 85.80078125 C20.32537109 87.56035156 20.32537109 87.56035156 19.6171875 89.35546875 C11.22490391 108.10986287 -4.94223783 120.32879999 -23.6328125 127.87109375 C-39.59162211 133.49077713 -57.97026306 132.17426355 -73.1027832 125.03344727 C-79.51239284 121.8849058 -85.63713594 118.59337581 -90.98046875 113.80078125 C-91.69203125 113.18074219 -92.40359375 112.56070313 -93.13671875 111.921875 C-107.57218142 98.49986091 -115.146284 80.50591339 -116.18359375 60.9765625 C-116.41190907 42.15957511 -110.94592543 23.89745227 -97.98046875 9.80078125 C-97.16255859 8.83011719 -97.16255859 8.83011719 -96.328125 7.83984375 C-71.13461225 -20.0549428 -29.39133075 -21.68718114 0 0 Z " fill="#1A212A" transform="translate(652.98046875,333.19921875)"/>
<path d="M0 0 C4.19361957 1.95452626 7.94006241 4.50933806 11 8 C13.0883138 14.2649414 12.00191853 19.42826494 9.4453125 25.328125 C-4.5554605 51.21063509 -37.06718001 66.6447324 -64 75 C-69.78157265 76.51115239 -75.63323198 77.63406678 -81.5300293 78.59008789 C-83.27281784 78.87931809 -85.01111259 79.19628802 -86.74536133 79.53295898 C-94.71583201 81.02439659 -102.46355602 81.34888573 -110.5625 81.3125 C-111.87645752 81.30686035 -113.19041504 81.3012207 -114.54418945 81.29541016 C-146.45515304 80.89992487 -146.45515304 80.89992487 -157.734375 70.3828125 C-162.09034594 65.46399138 -162.34772365 60.96244079 -162.28125 54.6640625 C-161.77984538 49.91464656 -159.3027281 48.07940328 -155.8125 45.1875 C-150.73031314 43.04168777 -145.68115126 43.77227344 -140.30883789 44.5 C-113.87514942 47.82924314 -87.06022808 44.6119288 -62 36 C-61.32630371 35.76941895 -60.65260742 35.53883789 -59.95849609 35.30126953 C-52.09531503 32.54123886 -44.79802178 28.98777848 -37.5 25 C-36.7579834 24.5968457 -36.0159668 24.19369141 -35.25146484 23.77832031 C-26.78854017 19.00966622 -21.10526858 13.1807025 -15.2109375 5.48828125 C-10.9237681 0.66332205 -6.44326131 -1.29102111 0 0 Z " fill="#131B24" transform="translate(592,493)"/>
<path d="M0 0 C1.23991699 0.37753418 1.23991699 0.37753418 2.50488281 0.76269531 C20.19751338 6.32004075 43.9712835 17.68794015 53.4375 34.5625 C54.35597793 38.54257103 54.9229714 41.32592085 52.8671875 45.0546875 C49.84937117 49.36811084 47.16032653 52.41220722 42 54 C37.7235749 54.69833878 33.8647008 54.96049683 29.9296875 52.93359375 C27.84645473 51.38592892 25.9253522 49.74022218 24 48 C16.5173793 41.41204047 8.76730628 37.01572504 -0.20849609 32.83691406 C-1.70670086 32.13701682 -3.19285842 31.41140709 -4.67578125 30.6796875 C-19.79786824 23.42753211 -39.34721909 23.91903627 -55.05126953 29.26806641 C-65.40070392 33.15526314 -74.59827358 38.75904901 -83.5234375 45.21484375 C-87.28331287 47.92503782 -89.33784406 48.44828422 -94 48 C-98.77561709 45.51667912 -101.55757357 42.79439263 -104 38 C-105.30522823 33.30959919 -105.58228254 30.16456508 -103.375 25.75 C-90.96651812 11.38228414 -75.054865 3.09239782 -57 -2 C-55.9171875 -2.3196875 -54.834375 -2.639375 -53.71875 -2.96875 C-35.67053819 -7.60971875 -17.5817923 -5.3957214 0 0 Z " fill="#171E27" transform="translate(415,321)"/>
<path d="M0 0 C0.98410858 -0.00395782 1.96821716 -0.00791565 2.98214722 -0.01199341 C17.46461922 -0.01184561 30.59801578 0.5899684 43.625 7.5625 C45.26855469 8.40748047 45.26855469 8.40748047 46.9453125 9.26953125 C57.47705379 15.39630718 68.73568264 25.13145711 73.625 36.5625 C74.32706418 41.82798136 74.0279623 44.56795176 70.9375 48.9375 C67.65759439 52.8185948 65.40609129 54.27270561 60.30078125 54.8046875 C54.32234209 55.10852447 51.49286562 54.29348345 46.625 50.5625 C43.79470856 47.85941267 41.11047225 45.04730431 38.40625 42.21875 C27.93987117 32.22277022 14.72101117 32.0214216 0.97753906 32.06152344 C-1.3729802 32.06249916 -3.72025824 32.02064438 -6.0703125 31.9765625 C-21.1687887 31.85713403 -34.80239667 36.34381149 -45.9296875 47.01171875 C-46.75726563 47.83285156 -47.58484375 48.65398437 -48.4375 49.5 C-51.85308663 52.69259451 -53.9617861 54.17967668 -58.6875 54.3125 C-64.26120106 53.73771208 -67.0481489 51.7419232 -71.1875 48.0625 C-73.99528054 44.43839988 -74.20715443 40.9101874 -73.9765625 36.42578125 C-71.89178235 26.50276923 -61.79400349 17.64237578 -54.00390625 11.77734375 C-37.38659003 1.10842644 -19.09871635 0.06370274 0 0 Z " fill="#121820" transform="translate(393.375,393.4375)"/>
<path d="M0 0 C0 27.39 0 54.78 0 83 C-16.64643799 73.75197889 -16.64643799 73.75197889 -21 64 C-22.47939852 55.81186468 -22.55787599 47.48517785 -22.73461914 39.18676758 C-22.78631833 37.27875954 -22.86132674 35.37123337 -22.96020508 33.46508789 C-23.80429689 16.84064931 -23.80429689 16.84064931 -19.48193359 11.09912109 C-14.30770503 5.39453372 -7.96252061 0 0 0 Z " fill="#7B95B5" transform="translate(257,421)"/>
<path d="M0 0 C11.27580275 4.5103211 11.27580275 4.5103211 15.5625 8.625 C16.38878906 9.40101563 17.21507812 10.17703125 18.06640625 10.9765625 C20.98261107 14.02826775 21.13642062 15.8021817 21.20874023 19.92114258 C21.22803085 20.94593216 21.24732147 21.97072174 21.26719666 23.02656555 C21.32482847 27.71534811 21.37420696 32.4039756 21.4050293 37.09301758 C21.42663078 39.56744321 21.46075841 42.04179201 21.50756836 44.51586914 C21.574411 48.07993764 21.60200345 51.6424252 21.62109375 55.20703125 C21.64892441 56.31238724 21.67675507 57.41774323 21.70542908 58.55659485 C21.68530706 66.05743365 21.68530706 66.05743365 19.72756958 68.75009155 C18.14868164 70.0769043 18.14868164 70.0769043 15 72 C13.515 73.2684375 13.515 73.2684375 12 74.5625 C4.07692308 81 4.07692308 81 0 81 C0 54.27 0 27.54 0 0 Z " fill="#8CA2C0" transform="translate(751,420)"/>
<path d="M0 0 C4.0836319 2.56805718 7.31078206 4.96617309 10 9 C10.265625 12.36328125 10.265625 12.36328125 10.25 16.3125 C10.25773438 18.25576172 10.25773438 18.25576172 10.265625 20.23828125 C9.93096304 24.97768525 9.06345041 28.35274821 6.484375 32.34765625 C2.58891044 34.93850768 -1.17948003 34.54076977 -5.75 34.4375 C-6.61882813 34.44458984 -7.48765625 34.45167969 -8.3828125 34.45898438 C-14.90394457 34.39533969 -20.79474523 33.61123072 -26.0234375 29.3515625 C-30.39791562 23.76335634 -32.51250371 19.49424903 -32.30859375 12.2734375 C-31.68869271 7.70657164 -29.7236742 4.51213236 -26.28125 1.4921875 C-18.06531038 -4.60014061 -9.10569499 -4.34370609 0 0 Z " fill="#F7FAFC" transform="translate(626,354)"/>
<path d="M0 0 C4.46074973 1.99140613 7.1802154 4.69424072 9.359375 9.015625 C10.60850592 12.8848842 10.36048962 16.19193098 9 20 C6.29829526 24.0766181 3.70795685 27.43068105 -1 29 C-7.08292267 29.83985126 -11.32599952 28.99903421 -16.3359375 25.40625 C-19.44367818 22.77999027 -20.71220324 20.74161543 -21.37890625 16.70703125 C-21.72434851 11.84879005 -21.37461056 8.78964887 -18.1875 5 C-12.65849544 -0.67917506 -7.64389919 -0.79982521 0 0 Z " fill="#17212A" transform="translate(515,607)"/>
<path d="M0 0 C95.37 0 190.74 0 289 0 C289 0.33 289 0.66 289 1 C287.35 1 285.7 1 284 1 C284 1.66 284 2.32 284 3 C282.3603125 2.7215625 282.3603125 2.7215625 280.6875 2.4375 C277.06375867 1.7421932 277.06375867 1.7421932 274 3 C271.19209526 3.02960141 268.4000277 2.93414072 265.59375 2.83984375 C262.76059054 2.79678582 262.76059054 2.79678582 260 5 C258 5.75 258 5.75 256 6 C255.01 5.34 254.02 4.68 253 4 C253 3.34 253 2.68 253 2 C251.8372757 2.00222061 250.67455139 2.00444122 249.47659302 2.00672913 C238.44509293 2.0271223 227.41359674 2.04204934 216.38208199 2.05181217 C210.7125583 2.05700027 205.04304999 2.06402267 199.37353516 2.07543945 C193.88810961 2.08641468 188.40269873 2.09230739 182.91726303 2.09487724 C180.83882288 2.09670541 178.76038341 2.10027439 176.68194962 2.10573006 C164.0825521 2.13744533 151.57146669 1.8627621 139 1 C138.67 1.66 138.34 2.32 138 3 C138 2.34 138 1.68 138 1 C133.71 1 129.42 1 125 1 C124.67 1.99 124.34 2.98 124 4 C123.505 3.01 123.505 3.01 123 2 C114.75 2 106.5 2 98 2 C97.34 3.32 96.68 4.64 96 6 C94.70529025 7.37086915 93.37849103 8.71340837 92 10 C93.32 10 94.64 10 96 10 C96.99 10.99 96.99 10.99 98 12 C98.99 12.495 98.99 12.495 100 13 C100 13.66 100 14.32 100 15 C99.34 15 98.68 15 98 15 C98 15.66 98 16.32 98 17 C98.66 17.33 99.32 17.66 100 18 C98.35 18 96.7 18 95 18 C94.505 17.01 94.505 17.01 94 16 C92.68 16.33 91.36 16.66 90 17 C89.01 15.02 88.02 13.04 87 11 C83.39007621 11.65585189 83.39007621 11.65585189 80 13 C80.4640625 12.195625 80.4640625 12.195625 80.9375 11.375 C82.17608873 8.60638989 82.53558305 5.98553755 83 3 C83.33 2.67 83.66 2.34 84 2 C82.64068359 2.01740234 82.64068359 2.01740234 81.25390625 2.03515625 C74.40496536 2.08588915 67.786092 1.93601269 61 1 C60.67 1.66 60.34 2.32 60 3 C60 2.34 60 1.68 60 1 C59.154375 1.144375 58.30875 1.28875 57.4375 1.4375 C51.21007814 2.45653267 45.30955415 3.2474335 39 3 C39 3.66 39 4.32 39 5 C37.68 5.33 36.36 5.66 35 6 C34.505 4.515 34.505 4.515 34 3 C22.78 2.67 11.56 2.34 0 2 C0 1.34 0 0.68 0 0 Z " fill="#353843" transform="translate(700,0)"/>
<path d="M0 0 C2.87921938 1.60700617 5.0242066 3.3522071 7 6 C8.15629099 10.77933609 8.15629099 10.77933609 7 14 C4.69992552 17.1295131 1.98072995 19.52879654 -1 22 C-1.68191406 22.59425781 -2.36382813 23.18851562 -3.06640625 23.80078125 C-7.17733133 27.17157892 -10.47604739 29.30688626 -16 29 C-20.02574544 26.36778183 -23.1930225 23.51744374 -25 19 C-23.7875963 13.65784619 -19.79162159 10.41980243 -16 6.75 C-15.03707031 5.79480469 -15.03707031 5.79480469 -14.0546875 4.8203125 C-9.12114069 -0.03066448 -7.21479334 -1.77412951 0 0 Z " fill="#F2F7FA" transform="translate(833,258)"/>
<path d="M0 0 C2.58719043 1.61699402 4.0061899 2.79450142 6 5 C6.69738281 5.763125 7.39476562 6.52625 8.11328125 7.3125 C11.29296691 11.01742681 13.69055254 14.11586441 15.3125 18.75 C14.86947513 23.35745866 13.29344374 24.78140725 10 28 C7 30 7 30 4.7578125 29.98828125 C0.74099937 28.54882839 -1.96879004 26.00151036 -5.125 23.1875 C-5.74503906 22.65318359 -6.36507812 22.11886719 -7.00390625 21.56835938 C-13.12136588 16.22051563 -13.12136588 16.22051563 -15 13 C-14.90374505 7.705978 -13.67426639 4.78560779 -10 1 C-6.7572903 -0.62135485 -3.50550498 -0.55350079 0 0 Z " fill="#F3F8FA" transform="translate(781,258)"/>
<path d="M0 0 C1.9921875 1.3203125 1.9921875 1.3203125 3.875 3.125 C4.89400391 4.07826172 4.89400391 4.07826172 5.93359375 5.05078125 C6.61550781 5.69402344 7.29742188 6.33726562 8 7 C9.87333375 8.59287303 11.76156235 10.16621927 13.65234375 11.73828125 C15.85879536 13.8040316 16.0333755 15.21694074 16.5 18.25 C15.98030343 22.14772431 15.73247414 22.84152053 13.0625 25.4375 C9.59651178 27.99689171 6.66407502 29.13918601 2.3359375 28.84375 C-2.81341835 26.983782 -5.84802631 22.26336326 -9 18 C-9.57621094 17.23945313 -10.15242187 16.47890625 -10.74609375 15.6953125 C-13.37607739 11.91782922 -13.37607739 11.91782922 -14 10 C-12.94046952 6.84576559 -11.1591762 4.92025227 -8.6875 2.75 C-8.11386719 2.22921875 -7.54023437 1.7084375 -6.94921875 1.171875 C-4.39732658 -0.36232871 -2.93414641 -0.42894209 0 0 Z " fill="#F4F9FA" transform="translate(824,301)"/>
<path d="M0 0 C4.66844518 0.04453207 7.18092795 1.28618996 10.8125 4.3125 C11.35132813 4.75335938 11.89015625 5.19421875 12.4453125 5.6484375 C14.7583093 8.46368504 14.33454232 11.28739166 14.2421875 14.796875 C13.55016039 18.84837915 11.79205875 20.54576688 8.8125 23.3125 C4.8452265 25.29613675 0.1256746 24.86001158 -4.1875 24.3125 C-7.46774188 22.70137923 -9.4508556 20.35049893 -11.5625 17.375 C-12.49833369 14.28674881 -12.74860789 12.55445669 -12.1875 9.3125 C-5.61793625 0.17879529 -5.61793625 0.17879529 0 0 Z " fill="#1B242E" transform="translate(659.1875,487.6875)"/>
<path d="M0 0 C4.5216573 1.45034291 7.67437081 4.09750109 10.3125 8.0625 C10.88759415 11.36396641 10.53857116 12.69527782 8.7734375 15.5625 C-1.22887116 27.55028566 -1.22887116 27.55028566 -6.6875 28.6875 C-10.88727529 27.81254681 -12.62618007 26.05262644 -15.6875 23.0625 C-17.23774464 19.96201072 -16.97742015 17.48355782 -16.6875 14.0625 C-14.13589138 9.80981897 -10.23952594 6.80205415 -6.4921875 3.61328125 C-2.35093549 0.05467292 -2.35093549 0.05467292 0 0 Z " fill="#F3F7F9" transform="translate(786.6875,300.9375)"/>
<path d="M0 0 C3.65943647 0.68907122 7.22441959 1.56821266 10.8125 2.5625 C11.78832031 2.83191406 12.76414062 3.10132813 13.76953125 3.37890625 C14.50558594 3.58386719 15.24164062 3.78882813 16 4 C13.88488314 8.36242853 10.99394111 10.86866927 7.36328125 13.921875 C4.6709049 16.28938611 2.19187622 18.80971621 -0.3125 21.375 C-7.22913649 28.35888156 -14.63247126 34.79856322 -23 40 C-23.66 39.67 -24.32 39.34 -25 39 C-19.25 34 -19.25 34 -17 34 C-16.67 33.01 -16.34 32.02 -16 31 C-15.34 31 -14.68 31 -14 31 C-14 30.34 -14 29.68 -14 29 C-13.401875 28.731875 -12.80375 28.46375 -12.1875 28.1875 C-9.95672092 27.1106021 -9.95672092 27.1106021 -8.375 25.375 C-7.92125 24.92125 -7.4675 24.4675 -7 24 C-6.34 24 -5.68 24 -5 24 C-4.67 22.68 -4.34 21.36 -4 20 C-3.01 20 -2.02 20 -1 20 C-0.71125 19.38125 -0.4225 18.7625 -0.125 18.125 C1 16 1 16 3 14 C2.67958603 11.39719432 2.67958603 11.39719432 2 9 C0.02 9 -1.96 9 -4 9 C-0.26034036 6.50689357 1.29070641 6.9396739 5.6875 7.375 C6.86699219 7.48585938 8.04648437 7.59671875 9.26171875 7.7109375 C10.16535156 7.80632813 11.06898438 7.90171875 12 8 C11.505 7.01 11.505 7.01 11 6 C8.64400765 5.53248212 8.64400765 5.53248212 5.9375 5.375 C5.01839844 5.30023437 4.09929688 5.22546875 3.15234375 5.1484375 C2.44207031 5.09945312 1.73179687 5.05046875 1 5 C1 4.34 1 3.68 1 3 C0.34 3 -0.32 3 -1 3 C-0.67 2.01 -0.34 1.02 0 0 Z " fill="#243141" transform="translate(545,720)"/>
<path d="M0 0 C28.05 0 56.1 0 85 0 C84.67 0.66 84.34 1.32 84 2 C76.24506486 2.09928082 68.68931285 2.06059488 61 1 C60.67 1.66 60.34 2.32 60 3 C60 2.34 60 1.68 60 1 C59.154375 1.144375 58.30875 1.28875 57.4375 1.4375 C51.21007814 2.45653267 45.30955415 3.2474335 39 3 C39 3.66 39 4.32 39 5 C37.68 5.33 36.36 5.66 35 6 C34.505 4.515 34.505 4.515 34 3 C22.78 2.67 11.56 2.34 0 2 C0 1.34 0 0.68 0 0 Z " fill="#383B45" transform="translate(700,0)"/>
<path d="M0 0 C14.52 0 29.04 0 44 0 C43 2 43 2 42 3 C42 3.99 42 4.98 42 6 C40.0625 5.625 40.0625 5.625 38 5 C37.505 4.01 37.505 4.01 37 3 C36.01 3.33 35.02 3.66 34 4 C34 4.66 34 5.32 34 6 C33.01 5.67 32.02 5.34 31 5 C31 4.01 31 3.02 31 2 C30.34 3.65 29.68 5.3 29 7 C28.21625 6.814375 27.4325 6.62875 26.625 6.4375 C24.02910225 5.74037734 24.02910225 5.74037734 22 7 C22 6.34 22 5.68 22 5 C21.01 5 20.02 5 19 5 C19 4.34 19 3.68 19 3 C17.10820797 2.3185177 17.10820797 2.3185177 15 2 C14.34 2.66 13.68 3.32 13 4 C13 3.34 13 2.68 13 2 C9.7 1.67 6.4 1.34 3 1 C2.67 1.66 2.34 2.32 2 3 C1.34 2.67 0.68 2.34 0 2 C0 1.34 0 0.68 0 0 Z " fill="#363A44" transform="translate(442,0)"/>
<path d="M0 0 C37.29 0 74.58 0 113 0 C113 0.33 113 0.66 113 1 C110.69 1 108.38 1 106 1 C105.67 1.66 105.34 2.32 105 3 C105 2.34 105 1.68 105 1 C89.49 1 73.98 1 58 1 C57.67 1.66 57.34 2.32 57 3 C57 2.34 57 1.68 57 1 C55.14375 1.24943359 55.14375 1.24943359 53.25 1.50390625 C48.00879019 2.02969052 42.82301156 2.06240119 37.5625 2.02734375 C36.71091309 2.02183502 35.85932617 2.01632629 34.98193359 2.01065063 C31.40923575 1.98287904 27.8366995 1.94772915 24.26416016 1.90405273 C21.63443316 1.87400277 19.00484285 1.85614612 16.375 1.83984375 C15.56361572 1.82638412 14.75223145 1.8129245 13.91625977 1.79905701 C11.94305613 1.79014849 9.96992647 1.88597521 8 2 C7.34 2.66 6.68 3.32 6 4 C5.34 3.34 4.68 2.68 4 2 C2.68 1.34 1.36 0.68 0 0 Z " fill="#3C3F4A" transform="translate(328,0)"/>
<path d="M0 0 C4.35992871 -0.04945386 8.71970862 -0.08574488 13.07983398 -0.10986328 C14.56293583 -0.11991821 16.04601788 -0.13356404 17.52905273 -0.15087891 C19.66134531 -0.17515006 21.79337569 -0.18648799 23.92578125 -0.1953125 C25.85031128 -0.21102295 25.85031128 -0.21102295 27.8137207 -0.22705078 C31 0 31 0 34 2 C32.02 2 30.04 2 28 2 C28 2.99 28 3.98 28 5 C27.01 4.67 26.02 4.34 25 4 C25.66 4 26.32 4 27 4 C27 3.34 27 2.68 27 2 C22.05 2 17.1 2 12 2 C12.33 2.99 12.66 3.98 13 5 C12.34 5 11.68 5 11 5 C10.01 6.485 10.01 6.485 9 8 C6.8359375 8.51171875 6.8359375 8.51171875 4.375 8.6875 C3.55773437 8.75324219 2.74046875 8.81898437 1.8984375 8.88671875 C1.27195312 8.92410156 0.64546875 8.96148437 0 9 C0.875 4.25 0.875 4.25 2 2 C1.34 1.34 0.68 0.68 0 0 Z " fill="#31333E" transform="translate(664,0)"/>
<path d="M0 0 C26.07 0 52.14 0 79 0 C79 0.33 79 0.66 79 1 C77.35 1 75.7 1 74 1 C74 1.66 74 2.32 74 3 C72.824375 2.7215625 72.824375 2.7215625 71.625 2.4375 C69.02910225 1.74037734 69.02910225 1.74037734 67 3 C64.81423854 3.09663965 62.62539152 3.12980327 60.4375 3.125 C58.67212891 3.12886719 58.67212891 3.12886719 56.87109375 3.1328125 C54 3 54 3 53 2 C51.52211018 1.91210631 50.04004236 1.89306336 48.55957031 1.90234375 C47.61478821 1.90564697 46.6700061 1.9089502 45.69659424 1.91235352 C44.15295197 1.92480103 44.15295197 1.92480103 42.578125 1.9375 C40.99991974 1.94317993 40.99991974 1.94317993 39.38983154 1.94897461 C34.86986631 1.9653795 30.34998987 1.99340383 25.83007812 2.02050781 C22.53776467 2.03859745 19.24546603 2.05069387 15.953125 2.0625 C14.42162811 2.07494751 14.42162811 2.07494751 12.85919189 2.08764648 C11.90180115 2.09094971 10.9444104 2.09425293 9.95800781 2.09765625 C8.70011444 2.10551147 8.70011444 2.10551147 7.41680908 2.11352539 C4.85949823 1.99340017 2.49436772 1.56250658 0 1 C0 0.67 0 0.34 0 0 Z " fill="#383C46" transform="translate(487,0)"/>
<path d="M0 0 C0.66 1.32 1.32 2.64 2 4 C2.79664063 4.75925781 3.59328125 5.51851562 4.4140625 6.30078125 C7.30939286 9.32294633 8.83411978 12.36723478 10.375 16.1875 C10.64699219 16.81591797 10.91898437 17.44433594 11.19921875 18.09179688 C11.87010162 19.70019555 12.44325953 21.34861568 13 23 C12.67 23.66 12.34 24.32 12 25 C11.67 24.01 11.34 23.02 11 22 C10.01 22.33 9.02 22.66 8 23 C6.66667905 20.3333581 7.32897967 18.83319697 8 16 C6.8553125 16.2475 6.8553125 16.2475 5.6875 16.5 C3 17 3 17 0 17 C0 11.39 0 5.78 0 0 Z " fill="#ABC4D4" transform="translate(288,510)"/>
<path d="M0 0 C-0.495 0.515625 -0.99 1.03125 -1.5 1.5625 C-3.57700386 4.93763128 -3.47919182 7.09800946 -3 11 C-1.20437595 13.75329021 0.05254922 15.52627461 3 17 C5.74303896 17.67166707 5.74303896 17.67166707 9 17 C11.26343022 15.35501633 13.24725519 13.5651331 15.265625 11.62890625 C17 10 17 10 19 9 C18.60446947 10.6510403 18.18286103 12.2958515 17.75 13.9375 C17.51796875 14.85402344 17.2859375 15.77054687 17.046875 16.71484375 C16 19 16 19 13.953125 19.87890625 C13.30859375 19.91886719 12.6640625 19.95882813 12 20 C11.67 19.67 11.34 19.34 11 19 C10.34 19.66 9.68 20.32 9 21 C8.34 21 7.68 21 7 21 C7 20.34 7 19.68 7 19 C6.34 19 5.68 19 5 19 C4.67 19.66 4.34 20.32 4 21 C3.34 20.67 2.68 20.34 2 20 C2 19.34 2 18.68 2 18 C0.68 17.67 -0.64 17.34 -2 17 C-2 16.34 -2 15.68 -2 15 C-2.99 14.67 -3.98 14.34 -5 14 C-6.38226016 11.23547967 -6.09525387 8.9538637 -6.0625 5.875 C-6.05347656 4.77929688 -6.04445313 3.68359375 -6.03515625 2.5546875 C-6.02355469 1.71164062 -6.01195312 0.86859375 -6 0 C-2.25 -1.125 -2.25 -1.125 0 0 Z " fill="#1A1E2A" transform="translate(774,311)"/>
<path d="M0 0 C1.08809212 0.00212242 1.08809212 0.00212242 2.19816589 0.00428772 C4.50064325 0.00985694 6.8030211 0.02240364 9.10546875 0.03515625 C10.67252463 0.04017523 12.23958205 0.04473744 13.80664062 0.04882812 C17.63545464 0.05981627 21.46419486 0.07705952 25.29296875 0.09765625 C25.29296875 0.42765625 25.29296875 0.75765625 25.29296875 1.09765625 C23.64296875 1.09765625 21.99296875 1.09765625 20.29296875 1.09765625 C20.29296875 1.75765625 20.29296875 2.41765625 20.29296875 3.09765625 C19.19984375 2.91203125 18.10671875 2.72640625 16.98046875 2.53515625 C13.35672742 1.83984945 13.35672742 1.83984945 10.29296875 3.09765625 C7.48506401 3.12725766 4.69299645 3.03179697 1.88671875 2.9375 C-0.94644071 2.89444207 -0.94644071 2.89444207 -3.70703125 5.09765625 C-5.70703125 5.84765625 -5.70703125 5.84765625 -7.70703125 6.09765625 C-8.69703125 5.43765625 -9.68703125 4.77765625 -10.70703125 4.09765625 C-10.70703125 3.43765625 -10.70703125 2.77765625 -10.70703125 2.09765625 C-11.36703125 1.76765625 -12.02703125 1.43765625 -12.70703125 1.09765625 C-8.45757272 0.05778028 -4.34775269 -0.03224006 0 0 Z " fill="#333640" transform="translate(963.70703125,-0.09765625)"/>
<path d="M0 0 C10.23 0 20.46 0 31 0 C30.67 0.99 30.34 1.98 30 3 C28.86820312 2.97679687 27.73640625 2.95359375 26.5703125 2.9296875 C25.08854825 2.91093099 23.60677688 2.89273066 22.125 2.875 C21.00544922 2.84986328 21.00544922 2.84986328 19.86328125 2.82421875 C17.90805539 2.8066041 15.95257979 2.89679811 14 3 C13.34 3.66 12.68 4.32 12 5 C12 4.34 12 3.68 12 3 C10.35 2.67 8.7 2.34 7 2 C7.33 3.32 7.66 4.64 8 6 C6.25 5.8125 6.25 5.8125 4 5 C2.68 3.35 1.36 1.7 0 0 Z M10 5 C10.99 5.495 10.99 5.495 12 6 C11.01 6.495 11.01 6.495 10 7 C10 6.34 10 5.68 10 5 Z " fill="#343944" transform="translate(252,0)"/>
<path d="M0 0 C3.82930896 0.54704414 5.43835572 2.19045466 8 5 C8.515625 5.515625 9.03125 6.03125 9.5625 6.5625 C10.57297036 7.57297036 11.57203317 8.59491449 12.5625 9.625 C13.972776 11.10933511 13.972776 11.10933511 16 12 C16 12.66 16 13.32 16 14 C17.051875 14.37125 17.051875 14.37125 18.125 14.75 C21.39514548 16.17180238 24.141122 17.87246288 27 20 C27 20.66 27 21.32 27 22 C27.66 22 28.32 22 29 22 C29.33 22.99 29.66 23.98 30 25 C31.62652316 26.70586575 33.29006566 28.3777546 35 30 C31.57326304 28.47260916 28.94158718 26.45668829 26.0625 24.0625 C24.61810547 22.86173828 24.61810547 22.86173828 23.14453125 21.63671875 C22.63486816 21.2092334 22.12520508 20.78174805 21.60009766 20.34130859 C19.9499126 18.9580134 18.29345022 17.58247594 16.63671875 16.20703125 C10.84196411 11.37418256 5.16056278 6.52060204 0 1 C0 0.67 0 0.34 0 0 Z " fill="#74859B" transform="translate(457,730)"/>
<path d="M0 0 C-4.6892069 11.36536587 -19.93036704 21.74049843 -30 28 C-30.66 27.67 -31.32 27.34 -32 27 C-26.25 22 -26.25 22 -24 22 C-23.67 21.01 -23.34 20.02 -23 19 C-22.34 19 -21.68 19 -21 19 C-21 18.34 -21 17.68 -21 17 C-20.401875 16.731875 -19.80375 16.46375 -19.1875 16.1875 C-16.95672092 15.1106021 -16.95672092 15.1106021 -15.375 13.375 C-14.694375 12.694375 -14.694375 12.694375 -14 12 C-13.34 12 -12.68 12 -12 12 C-11.67 10.68 -11.34 9.36 -11 8 C-10.01 8 -9.02 8 -8 8 C-7.7525 7.4225 -7.505 6.845 -7.25 6.25 C-5.58207452 3.24773413 -3.67725381 0 0 0 Z " fill="#7D8DA0" transform="translate(552,732)"/>
<path d="M0 0 C0.99 0.66 1.98 1.32 3 2 C2.32626343 2.6501709 2.32626343 2.6501709 1.63891602 3.31347656 C-0.39441495 5.28439341 -2.41598305 7.26697068 -4.4375 9.25 C-5.49807617 10.27287109 -5.49807617 10.27287109 -6.58007812 11.31640625 C-7.25361328 11.98027344 -7.92714844 12.64414062 -8.62109375 13.328125 C-9.2442749 13.9355957 -9.86745605 14.54306641 -10.50952148 15.16894531 C-12.12935216 17.15890929 -12.68056343 18.46945832 -13 21 C-10.86729771 25.63101069 -7.09211942 29.07705756 -3 32 C-4.98 32 -6.96 32 -9 32 C-9.33 31.01 -9.66 30.02 -10 29 C-10.66 28.4225 -11.32 27.845 -12 27.25 C-14.68333697 24.2312459 -14.8552356 21.9810209 -15 18 C-14.01 16.515 -14.01 16.515 -13 15 C-13.33 14.34 -13.66 13.68 -14 13 C-12.68 12.67 -11.36 12.34 -10 12 C-9.67 10.68 -9.34 9.36 -9 8 C-8.401875 7.896875 -7.80375 7.79375 -7.1875 7.6875 C-3.81204519 6.62664277 -2.47370091 4.87260694 -0.8125 1.8125 C-0.544375 1.214375 -0.27625 0.61625 0 0 Z " fill="#111920" transform="translate(822,256)"/>
<path d="M0 0 C0.66 0.33 1.32 0.66 2 1 C1.835 1.598125 1.67 2.19625 1.5 2.8125 C0.8885876 5.11344336 0.8885876 5.11344336 1 8 C-1.125 9.875 -1.125 9.875 -4 11 C-7.25 9.875 -7.25 9.875 -10 8 C-10.33 7.01 -10.66 6.02 -11 5 C-10.484375 4.9175 -9.96875 4.835 -9.4375 4.75 C-7.10081268 4.03101929 -5.45283227 3.13297778 -3.375 1.875 C-2.26125 1.25625 -1.1475 0.6375 0 0 Z " fill="#303B4C" transform="translate(463,720)"/>
<path d="M0 0 C14.52 0 29.04 0 44 0 C43.34 0.66 42.68 1.32 42 2 C39.27130593 1.96712417 36.7033382 1.43602229 34 1 C33.67 1.66 33.34 2.32 33 3 C28.82847407 3 24.76920913 2.99565292 20.625 2.5 C15.29232127 1.92583253 10.04350335 2.00225521 4.6875 2.16015625 C2 2 2 2 0 0 Z " fill="#373B45" transform="translate(567,0)"/>
<path d="M0 0 C0.33 0 0.66 0 1 0 C1 11.22 1 22.44 1 34 C0.67 34 0.34 34 0 34 C-0.33 31.36 -0.66 28.72 -1 26 C-1.99 26 -2.98 26 -4 26 C-3.67 22.37 -3.34 18.74 -3 15 C-2.34 15 -1.68 15 -1 15 C-0.67 10.05 -0.34 5.1 0 0 Z " fill="#ADB3BA" transform="translate(721,464)"/>
<path d="M0 0 C2.99881195 4.49821792 2.57659453 8.72626956 2 14 C0.77793268 18.22054178 -0.90519201 21.70969058 -3.75 25.0625 C-8.58268055 27.0761169 -14.03733649 26.24066588 -19 25 C-19 24.67 -19 24.34 -19 24 C-18.10796875 23.97421875 -17.2159375 23.9484375 -16.296875 23.921875 C-15.12640625 23.86515625 -13.9559375 23.8084375 -12.75 23.75 C-11.00976562 23.68039062 -11.00976562 23.68039062 -9.234375 23.609375 C-5.44522205 22.89547662 -4.24283954 22.09725461 -2 19 C-0.75934169 15.02040205 -0.70868227 10.83271468 -0.4375 6.6875 C-0.35371094 5.43324219 -0.26992188 4.17898438 -0.18359375 2.88671875 C-0.09271484 1.45779297 -0.09271484 1.45779297 0 0 Z " fill="#72787F" transform="translate(636,364)"/>
<path d="M0 0 C0.99 0 1.98 0 3 0 C4.25390625 1.50390625 4.25390625 1.50390625 5.5625 3.5625 C8.69259327 8.01260735 12.3829656 10.63479104 16.92578125 13.5546875 C19 15 19 15 20 17 C19.21625 16.814375 18.4325 16.62875 17.625 16.4375 C15.02910225 15.74037734 15.02910225 15.74037734 13 17 C12.7525 16.38125 12.505 15.7625 12.25 15.125 C10.79371361 12.64931313 9.62187494 12.04874998 7 11 C7 10.34 7 9.68 7 9 C6.01 9 5.02 9 4 9 C3.525625 7.88625 3.05125 6.7725 2.5625 5.625 C1.74693537 3.73289006 0.92143645 1.84287291 0 0 Z " fill="#090F1A" transform="translate(235,487)"/>
<path d="M0 0 C13.53 0 27.06 0 41 0 C41 0.33 41 0.66 41 1 C39.081875 1.2165625 39.081875 1.2165625 37.125 1.4375 C34.74307106 1.70642746 33.15547309 1.92226346 31 3 C30.29488281 2.85691406 29.58976562 2.71382813 28.86328125 2.56640625 C25.28954387 1.85945956 21.81178104 1.89241325 18.1875 1.9375 C17.49462891 1.94201172 16.80175781 1.94652344 16.08789062 1.95117188 C14.39188932 1.96286844 12.69593297 1.98080076 11 2 C10.67 2.66 10.34 3.32 10 4 C9.34 3.34 8.68 2.68 8 2 C5.34462628 1.43479997 2.70855287 1.26211802 0 1 C0 0.67 0 0.34 0 0 Z " fill="#383C47" transform="translate(143,0)"/>
<path d="M0 0 C0 0.66 0 1.32 0 2 C-1.72262555 3.51497459 -3.50435515 4.963193 -5.3125 6.375 C-8.73916348 9.0536206 -11.47328476 11.47037317 -14 15 C-14.99 15.495 -14.99 15.495 -16 16 C-16.33 16.99 -16.66 17.98 -17 19 C-17.66 19 -18.32 19 -19 19 C-17.68435478 11.40973914 -9.86396647 5.47146783 -4 1 C-2 0 -2 0 0 0 Z " fill="#101419" transform="translate(238,403)"/>
<path d="M0 0 C0.66 0.33 1.32 0.66 2 1 C3.27858734 5.58160463 3.0512932 8.70205235 1 13 C-1 14.3125 -1 14.3125 -3 15 C-3.99 15.495 -3.99 15.495 -5 16 C-5.66 15.67 -6.32 15.34 -7 15 C-7.33 15.66 -7.66 16.32 -8 17 C-9.98 16.67 -11.96 16.34 -14 16 C-11.65578881 14.8278944 -9.31055639 13.67638361 -6.9375 12.5625 C-3.45065128 10.81898189 -3.45065128 10.81898189 -1 8 C-0.45757246 5.31976978 -0.22427391 2.73614169 0 0 Z " fill="#1E2630" transform="translate(840,315)"/>
<path d="M0 0 C0.33 0 0.66 0 1 0 C2.32719886 6.96779403 2.08825381 13.92988911 2 21 C5.465 20.505 5.465 20.505 9 20 C5.8459821 22.71595986 4.12615036 23.96846241 0 25 C0 16.75 0 8.5 0 0 Z " fill="#69758C" transform="translate(751,476)"/>
<path d="M0 0 C5.94 0 11.88 0 18 0 C18 0.66 18 1.32 18 2 C15.03 1.67 12.06 1.34 9 1 C9 1.66 9 2.32 9 3 C8.34 3 7.68 3 7 3 C6.67 3.99 6.34 4.98 6 6 C5.01 6.33 4.02 6.66 3 7 C3 6.34 3 5.68 3 5 C1.68 5.33 0.36 5.66 -1 6 C-1 4 -1 4 0.5 2.375 C0.995 1.92125 1.49 1.4675 2 1 C1.34 0.67 0.68 0.34 0 0 Z " fill="#30343E" transform="translate(612,0)"/>
<path d="M0 0 C-1.24976756 3.65316671 -1.67098753 4.78065836 -5 7 C-5.41764382 9.81274752 -5.41764382 9.81274752 -5.29296875 13.1015625 C-5.28330078 14.31328125 -5.27363281 15.525 -5.26367188 16.7734375 C-5.23853516 18.04445313 -5.21339844 19.31546875 -5.1875 20.625 C-5.17396484 21.90375 -5.16042969 23.1825 -5.14648438 24.5 C-5.11103196 27.66708282 -5.06161441 30.83333541 -5 34 C-5.33 34 -5.66 34 -6 34 C-7.02706539 27.95546764 -7.28527716 22.00062287 -7.375 15.875 C-7.41238281 14.89917969 -7.44976562 13.92335938 -7.48828125 12.91796875 C-7.57612253 5.76378459 -7.57612253 5.76378459 -4.6015625 1.8203125 C-2 0 -2 0 0 0 Z " fill="#97ACC4" transform="translate(242,431)"/>
<path d="M0 0 C3.3 0 6.6 0 10 0 C8.33333333 3.33333333 6.66666667 6.66666667 5 10 C4.34 9.67 3.68 9.34 3 9 C2.64080332 7.33871537 2.31088368 5.67099977 2 4 C1.34 2.68 0.68 1.36 0 0 Z " fill="#2F3441" transform="translate(15,0)"/>
<path d="M0 0 C0.66 0.33 1.32 0.66 2 1 C0.08527667 2.29454565 -1.83185518 3.58552944 -3.75 4.875 C-4.81734375 5.59429688 -5.8846875 6.31359375 -6.984375 7.0546875 C-9.29477114 8.54507257 -11.51063964 9.85199401 -14 11 C-15.98 9.35 -17.96 7.7 -20 6 C-19.67 5.34 -19.34 4.68 -19 4 C-18.46632813 4.21398437 -17.93265625 4.42796875 -17.3828125 4.6484375 C-13.47479973 5.9060333 -11.09238932 6.49118782 -7.24609375 4.76171875 C-5.48924986 3.64930668 -3.76028396 2.49128201 -2.06640625 1.28515625 C-1.38449219 0.86105469 -0.70257812 0.43695312 0 0 Z " fill="#7F8DA0" transform="translate(518,760)"/>
<path d="M0 0 C0.99 0.33 1.98 0.66 3 1 C-2.6549405 6.42318064 -7.75758636 10.91526826 -15 14 C-13.44572016 9.66223861 -10.10268248 7.37649106 -6.5625 4.6875 C-5.68368164 3.98657227 -5.68368164 3.98657227 -4.78710938 3.27148438 C-3.06640625 1.94921875 -3.06640625 1.94921875 0 0 Z " fill="#222329" transform="translate(626,739)"/>
<path d="M0 0 C7.26 0 14.52 0 22 0 C21.34 1.65 20.68 3.3 20 5 C18.9275 4.71125 17.855 4.4225 16.75 4.125 C11.22879652 2.73476891 5.62089698 1.88060719 0 1 C0 0.67 0 0.34 0 0 Z " fill="#343943" transform="translate(34,0)"/>
<path d="M0 0 C1.17949219 0.11085938 2.35898437 0.22171875 3.57421875 0.3359375 C4.47785156 0.43132813 5.38148438 0.52671875 6.3125 0.625 C1.16964286 6.19642857 1.16964286 6.19642857 -2.6875 6.625 C-3.0175 4.975 -3.3475 3.325 -3.6875 1.625 C-5.6675 1.625 -7.6475 1.625 -9.6875 1.625 C-5.94784036 -0.86810643 -4.39679359 -0.4353261 0 0 Z " fill="#45586E" transform="translate(550.6875,727.375)"/>
<path d="M0 0 C0.66 0 1.32 0 2 0 C3.27974243 4.42104127 2.95282117 8.44956029 2.6875 13 C2.65205078 13.80695312 2.61660156 14.61390625 2.58007812 15.4453125 C2.53689453 16.22648437 2.49371094 17.00765625 2.44921875 17.8125 C2.39254028 18.87404297 2.39254028 18.87404297 2.3347168 19.95703125 C2 22 2 22 0 26 C0 17.42 0 8.84 0 0 Z " fill="#333743" transform="translate(0,0)"/>
<path d="M0 0 C0.33 0 0.66 0 1 0 C2.0712828 6.02596573 2.09945415 11.88909517 2 18 C2.66 18 3.32 18 4 18 C4.33 16.68 4.66 15.36 5 14 C5.33 16.31 5.66 18.62 6 21 C4.02 20.34 2.04 19.68 0 19 C0 12.73 0 6.46 0 0 Z " fill="#1B232B" transform="translate(771,359)"/>
<path d="M0 0 C5.61 0 11.22 0 17 0 C17 2 17 2 15.125 4 C14.42375 4.66 13.7225 5.32 13 6 C12.34 6.66 11.68 7.32 11 8 C10.34 7.67 9.68 7.34 9 7 C9.33 5.02 9.66 3.04 10 1 C8.72125 1.20625 7.4425 1.4125 6.125 1.625 C3.9453125 1.9765625 3.9453125 1.9765625 2 2 C1.34 1.34 0.68 0.68 0 0 Z " fill="#353842" transform="translate(233,0)"/>
<path d="M0 0 C2.90802461 2.21928194 4.95312762 3.92969143 7 7 C7.639375 7.12375 8.27875 7.2475 8.9375 7.375 C11 8 11 8 12.625 10.375 C13.07875 11.24125 13.5325 12.1075 14 13 C14.99 14.485 14.99 14.485 16 16 C11.38989712 15.14383804 8.92910626 12.37255592 5.75 9.125 C5.19570313 8.58230469 4.64140625 8.03960938 4.0703125 7.48046875 C0 3.38008005 0 3.38008005 0 0 Z " fill="#161A1F" transform="translate(309,646)"/>
<path d="M0 0 C3.63 0 7.26 0 11 0 C11.66 1.32 12.32 2.64 13 4 C12.34 4.66 11.68 5.32 11 6 C9.65737935 5.70630173 8.32303717 5.3721042 7 5 C6.01 5.495 6.01 5.495 5 6 C5 5.34 5 4.68 5 4 C4.01 4 3.02 4 2 4 C2 3.34 2 2.68 2 2 C1.34 1.34 0.68 0.68 0 0 Z " fill="#31343E" transform="translate(459,1)"/>
<path d="M0 0 C-4.10046362 1.73815413 -8.27855397 3.05369649 -12.5625 4.25 C-13.5515332 4.54777344 -13.5515332 4.54777344 -14.56054688 4.8515625 C-17.57034994 5.68644255 -19.47858378 6.18840396 -22.46484375 5.109375 C-23.22474609 4.56023438 -23.22474609 4.56023438 -24 4 C-18.66666667 2.66666667 -13.33333333 1.33333333 -8 0 C-7.30616211 -0.19408447 -6.61232422 -0.38816895 -5.89746094 -0.58813477 C-3.63264244 -1.07973909 -2.18310741 -0.7017131 0 0 Z " fill="#161A21" transform="translate(578,700)"/>
<path d="M0 0 C4.27077656 -0.05794812 8.54145236 -0.09357874 12.8125 -0.125 C14.02744141 -0.14175781 15.24238281 -0.15851562 16.49414062 -0.17578125 C17.65751953 -0.18222656 18.82089844 -0.18867187 20.01953125 -0.1953125 C21.62985229 -0.21102295 21.62985229 -0.21102295 23.27270508 -0.22705078 C26 0 26 0 29 2 C27.02 2 25.04 2 23 2 C23 2.99 23 3.98 23 5 C22.01 4.67 21.02 4.34 20 4 C20.66 4 21.32 4 22 4 C22 3.34 22 2.68 22 2 C14.74 1.67 7.48 1.34 0 1 C0 0.67 0 0.34 0 0 Z " fill="#3B3E48" transform="translate(669,0)"/>
<path d="M0 0 C7.92 0 15.84 0 24 0 C23.01 0.99 22.02 1.98 21 3 C20.01 3 19.02 3 18 3 C18 2.34 18 1.68 18 1 C14.04 1 10.08 1 6 1 C6 1.66 6 2.32 6 3 C5.01 3.33 4.02 3.66 3 4 C3 3.34 3 2.68 3 2 C2.01 2.33 1.02 2.66 0 3 C0 2.01 0 1.02 0 0 Z " fill="#383B45" transform="translate(195,0)"/>
<path d="M0 0 C0.99 0.33 1.98 0.66 3 1 C3.06058594 1.67546875 3.12117187 2.3509375 3.18359375 3.046875 C3.26738281 3.93890625 3.35117187 4.8309375 3.4375 5.75 C3.55931641 7.07257813 3.55931641 7.07257813 3.68359375 8.421875 C3.96238465 10.69350452 4.38790577 12.79851823 5 15 C-0.94988864 9.20267261 -0.94988864 9.20267261 -1.125 5 C-1 2 -1 2 0 0 Z " fill="#23262F" transform="translate(648,495)"/>
<path d="M0 0 C3.29159316 -0.05790353 6.58305603 -0.09356261 9.875 -0.125 C10.81214844 -0.14175781 11.74929688 -0.15851562 12.71484375 -0.17578125 C13.61074219 -0.18222656 14.50664062 -0.18867187 15.4296875 -0.1953125 C16.25710449 -0.20578613 17.08452148 -0.21625977 17.93701172 -0.22705078 C20 0 20 0 22 2 C21 3 21 3 18.05859375 3.09765625 C16.26615234 3.08025391 16.26615234 3.08025391 14.4375 3.0625 C12.64119141 3.04896484 12.64119141 3.04896484 10.80859375 3.03515625 C9.88175781 3.02355469 8.95492188 3.01195312 8 3 C8 2.67 8 2.34 8 2 C5.36 1.67 2.72 1.34 0 1 C0 0.67 0 0.34 0 0 Z " fill="#333840" transform="translate(466,539)"/>
<path d="M0 0 C0.99 0.33 1.98 0.66 3 1 C1.44555348 2.46691458 -0.11892175 3.92320641 -1.6875 5.375 C-2.55761719 6.18710937 -3.42773438 6.99921875 -4.32421875 7.8359375 C-6.86371107 9.88977509 -8.92025866 10.9900668 -12 12 C-9.57204224 6.65849292 -4.99845988 2.91576827 0 0 Z " fill="#1C1F24" transform="translate(652,718)"/>
<path d="M0 0 C0.99 0.33 1.98 0.66 3 1 C2.43410156 1.54269531 1.86820312 2.08539063 1.28515625 2.64453125 C0.55167969 3.35996094 -0.18179687 4.07539063 -0.9375 4.8125 C-1.66839844 5.52019531 -2.39929688 6.22789062 -3.15234375 6.95703125 C-5.20834646 8.95536163 -5.20834646 8.95536163 -6 12 C-7.32 12 -8.64 12 -10 12 C-8.43873668 8.16780823 -5.97133075 5.82638778 -3 3 C-2.401875 2.401875 -1.80375 1.80375 -1.1875 1.1875 C-0.795625 0.795625 -0.40375 0.40375 0 0 Z " fill="#222529" transform="translate(322,336)"/>
<path d="M0 0 C0.66 0 1.32 0 2 0 C4.45681742 2.76391959 6.71811502 5.50395006 8 9 C7.67 9.99 7.34 10.98 7 12 C6.67 10.68 6.34 9.36 6 8 C5.01 8 4.02 8 3 8 C0.75 6.25 0.75 6.25 -1 4 C-0.75 1.75 -0.75 1.75 0 0 Z " fill="#BBD2E4" transform="translate(297,532)"/>
<path d="M0 0 C1.5 1.375 1.5 1.375 3 3 C3 3.66 3 4.32 3 5 C4.32 5.66 5.64 6.32 7 7 C7 7.99 7 8.98 7 10 C8.32 10.66 9.64 11.32 11 12 C10.67 12.99 10.34 13.98 10 15 C8.5090151 13.44877329 7.03261088 11.88352332 5.5625 10.3125 C4.73878906 9.44238281 3.91507813 8.57226562 3.06640625 7.67578125 C0.96952096 4.96053281 0.33355506 3.36587377 0 0 Z " fill="#131720" transform="translate(221,500)"/>
<path d="M0 0 C0.66 0 1.32 0 2 0 C2 0.66 2 1.32 2 2 C3.32 2.33 4.64 2.66 6 3 C6 2.01 6 1.02 6 0 C6.99 0.33 7.98 0.66 9 1 C8.34 2.65 7.68 4.3 7 6 C4.36 6.33 1.72 6.66 -1 7 C-0.67 4.69 -0.34 2.38 0 0 Z " fill="#323540" transform="translate(274,104)"/>
<path d="M0 0 C2.64 0 5.28 0 8 0 C8 0.66 8 1.32 8 2 C7.34 2 6.68 2 6 2 C6.33 3.32 6.66 4.64 7 6 C5 7 5 7 2.9375 6.375 C1 5 1 5 0.25 2.375 C0.1675 1.59125 0.085 0.8075 0 0 Z " fill="#353842" transform="translate(319,0)"/>
<path d="M0 0 C1.65 0 3.3 0 5 0 C4.34 0.66 3.68 1.32 3 2 C2.01 1.34 1.02 0.68 0 0 Z M-3 2 C-1.02 2 0.96 2 3 2 C2.319375 2.61875 2.319375 2.61875 1.625 3.25 C-0.05950374 5.06408095 -0.99265971 6.75285627 -2 9 C-3.0625 7.1875 -3.0625 7.1875 -4 5 C-3.67 4.01 -3.34 3.02 -3 2 Z M-3 9 C-2.67 9.99 -2.34 10.98 -2 12 C-2.33 12.66 -2.66 13.32 -3 14 C-3.66 13.01 -4.32 12.02 -5 11 C-4.34 10.34 -3.68 9.68 -3 9 Z " fill="#31343E" transform="translate(695,0)"/>
<path d="M0 0 C0.99 0 1.98 0 3 0 C1.55215477 3.37830553 -0.16332276 5.64961028 -3 8 C-5.75 8.75 -5.75 8.75 -8 9 C-7.04270084 7.87411986 -6.08412105 6.7493285 -5.125 5.625 C-4.59132813 4.99851562 -4.05765625 4.37203125 -3.5078125 3.7265625 C-2.38567993 2.44163349 -1.20628025 1.20628025 0 0 Z " fill="#212B33" transform="translate(675,638)"/>
<path d="M0 0 C3.87864659 3.87864659 5.8700695 9.14849036 6.25 14.5625 C6.1675 15.366875 6.085 16.17125 6 17 C4 16 4 16 2.9296875 13.41796875 C2.58164062 12.35191406 2.23359375 11.28585937 1.875 10.1875 C1.52179687 9.12917969 1.16859375 8.07085937 0.8046875 6.98046875 C0 4 0 4 0 0 Z " fill="#151920" transform="translate(758,312)"/>
<path d="M0 0 C1.72926874 0.31193464 3.45841044 0.62457362 5.1875 0.9375 C6.15042969 1.11152344 7.11335938 1.28554688 8.10546875 1.46484375 C10.74239972 1.9523735 13.3719905 2.46671105 16 3 C15.67 3.66 15.34 4.32 15 5 C9.76119922 4.44854729 5.02649303 3.57077907 0 2 C0 1.34 0 0.68 0 0 Z " fill="#CBD0DF" transform="translate(431,696)"/>
<path d="M0 0 C0.33 0.99 0.66 1.98 1 3 C-2.63 6.63 -6.26 10.26 -10 14 C-10.66 13.67 -11.32 13.34 -12 13 C-11.04578192 11.85073734 -10.08647955 10.70569459 -9.125 9.5625 C-8.59132813 8.92441406 -8.05765625 8.28632812 -7.5078125 7.62890625 C-6 6 -6 6 -4 5 C-3.67 4.01 -3.34 3.02 -3 2 C-2.01 2 -1.02 2 0 2 C0 1.34 0 0.68 0 0 Z " fill="#DCE5EC" transform="translate(680,630)"/>
<path d="M0 0 C-0.50789062 0.31453125 -1.01578125 0.6290625 -1.5390625 0.953125 C-5.74251179 3.56650546 -9.89752324 6.23082819 -14 9 C-14 8.01 -14 7.02 -14 6 C-12.35546875 4.4296875 -12.35546875 4.4296875 -10.1875 2.875 C-9.12595703 2.09769531 -9.12595703 2.09769531 -8.04296875 1.3046875 C-4.88740485 -0.71052922 -3.61943811 -1.20647937 0 0 Z " fill="#222427" transform="translate(681,700)"/>
<path d="M0 0 C1.32 0 2.64 0 4 0 C4 0.66 4 1.32 4 2 C1.44276771 3.27861615 -0.36737102 3.11336609 -3.2265625 3.09765625 C-4.2578125 3.09443359 -5.2890625 3.09121094 -6.3515625 3.08789062 C-7.97191406 3.07532227 -7.97191406 3.07532227 -9.625 3.0625 C-11.25695312 3.05573242 -11.25695312 3.05573242 -12.921875 3.04882812 C-15.61463789 3.03701776 -18.30729188 3.02054778 -21 3 C-21 2.67 -21 2.34 -21 2 C-14.07 2 -7.14 2 0 2 C0 1.34 0 0.68 0 0 Z " fill="#323844" transform="translate(534,200)"/>
<path d="M0 0 C0 0.99 0 1.98 0 3 C-2.25 4.8125 -2.25 4.8125 -5 6 C-7.3125 5.1875 -7.3125 5.1875 -9 4 C-8.34 3.01 -7.68 2.02 -7 1 C-3.375 0.3125 -3.375 0.3125 0 0 Z " fill="#404F62" transform="translate(464,725)"/>
<path d="M0 0 C-0.33 0.99 -0.66 1.98 -1 3 C-2.64551962 3.71727778 -4.31422289 4.38325228 -6 5 C-6.66 5.66 -7.32 6.32 -8 7 C-10.625 7.125 -10.625 7.125 -13 7 C-11.33784732 5.66104368 -9.67036393 4.32869858 -8 3 C-7.319375 2.4225 -6.63875 1.845 -5.9375 1.25 C-4 0 -4 0 0 0 Z " fill="#111E26" transform="translate(644,668)"/>
<path d="M0 0 C0.66 0 1.32 0 2 0 C2.99 4.29 3.98 8.58 5 13 C4.01 12.67 3.02 12.34 2 12 C1.67 9.69 1.34 7.38 1 5 C0.34 5 -0.32 5 -1 5 C-0.67 3.35 -0.34 1.7 0 0 Z " fill="#383D46" transform="translate(189,483)"/>
<path d="M0 0 C1.65 0 3.3 0 5 0 C4.34 1.98 3.68 3.96 3 6 C2.67 5.34 2.34 4.68 2 4 C1.01 3.67 0.02 3.34 -1 3 C-0.67 2.01 -0.34 1.02 0 0 Z M6 0 C6.66 0.33 7.32 0.66 8 1 C8 1.66 8 2.32 8 3 C7.01 2.67 6.02 2.34 5 2 C5.33 1.34 5.66 0.68 6 0 Z M0 6 C0.99 6.495 0.99 6.495 2 7 C1.01 7.495 1.01 7.495 0 8 C0 7.34 0 6.68 0 6 Z " fill="#31343E" transform="translate(917,8)"/>
<path d="M0 0 C1.134375 0.020625 2.26875 0.04125 3.4375 0.0625 C3.7675 1.0525 4.0975 2.0425 4.4375 3.0625 C3.7775 3.0625 3.1175 3.0625 2.4375 3.0625 C2.4375 3.7225 2.4375 4.3825 2.4375 5.0625 C1.4475 5.3925 0.4575 5.7225 -0.5625 6.0625 C-1.2225 5.0725 -1.8825 4.0825 -2.5625 3.0625 C-3.2225 2.4025 -3.8825 1.7425 -4.5625 1.0625 C-3.5625 0.0625 -3.5625 0.0625 0 0 Z " fill="#31343E" transform="translate(125.5625,0.9375)"/>
<path d="M0 0 C0.99 0.33 1.98 0.66 3 1 C-0.96 4.3 -4.92 7.6 -9 11 C-9 8 -9 8 -7.03125 5.95703125 C-6.1959375 5.24933594 -5.360625 4.54164063 -4.5 3.8125 C-3.6646875 3.09707031 -2.829375 2.38164063 -1.96875 1.64453125 C-1.3190625 1.10183594 -0.669375 0.55914063 0 0 Z " fill="#212428" transform="translate(592,766)"/>
<path d="M0 0 C0.99 0.33 1.98 0.66 3 1 C1.92492371 2.29854721 0.83956264 3.58858361 -0.25 4.875 C-0.85328125 5.59429688 -1.4565625 6.31359375 -2.078125 7.0546875 C-3.97087634 8.97052118 -5.53657727 9.96449045 -8 11 C-5.50127818 7.1626772 -2.9156164 3.54039134 0 0 Z " fill="#26282D" transform="translate(725,652)"/>
<path d="M0 0 C0.33 0 0.66 0 1 0 C1.33951619 1.56116819 1.67132544 3.12401338 2 4.6875 C2.185625 5.55761719 2.37125 6.42773438 2.5625 7.32421875 C2.98972047 9.93712964 3.07616201 12.35813038 3 15 C2.34 15 1.68 15 1 15 C0.67 15.66 0.34 16.32 0 17 C0 11.39 0 5.78 0 0 Z " fill="#768B9E" transform="translate(288,510)"/>
<path d="M0 0 C0.66 0.33 1.32 0.66 2 1 C1.54625 1.7425 1.0925 2.485 0.625 3.25 C-1.2783795 6.47110378 -2.81645251 9.44935754 -4 13 C-4.99 13.33 -5.98 13.66 -7 14 C-5.53967505 8.68972746 -3.01679014 4.53669968 0 0 Z " fill="#E8EFF4" transform="translate(204,401)"/>
<path d="M0 0 C0 3 0 3 -1.3125 4.60546875 C-1.869375 5.12753906 -2.42625 5.64960938 -3 6.1875 C-3.556875 6.71730469 -4.11375 7.24710937 -4.6875 7.79296875 C-5.120625 8.19128906 -5.55375 8.58960938 -6 9 C-6.66 8.67 -7.32 8.34 -8 8 C-6.49776416 3.79373966 -3.71449966 2.26099979 0 0 Z " fill="#25292F" transform="translate(569,331)"/>
<path d="M0 0 C2.97 0 5.94 0 9 0 C8.34 1.32 7.68 2.64 7 4 C4.375 4.75 4.375 4.75 2 5 C1.34 3.35 0.68 1.7 0 0 Z " fill="#30333E" transform="translate(64,1)"/>
<path d="M0 0 C3.82930896 0.54704414 5.43835572 2.19045466 8 5 C8.8353125 5.7425 8.8353125 5.7425 9.6875 6.5 C11.25095561 8.28680641 11.49805822 9.71077022 12 12 C7.47384007 8.32167983 3.60575001 4.58913637 0 0 Z " fill="#637187" transform="translate(457,730)"/>
<path d="M0 0 C1.32 0.33 2.64 0.66 4 1 C-0.455 4.465 -0.455 4.465 -5 8 C-5.66 7.67 -6.32 7.34 -7 7 C-4.66666667 4.66666667 -2.33333333 2.33333333 0 0 Z " fill="#121D25" transform="translate(658,654)"/>
<path d="M0 0 C2.64 0.33 5.28 0.66 8 1 C9.14229879 4.42689636 8.90861076 6.61102218 8.5625 10.1875 C8.46066406 11.27417969 8.35882813 12.36085938 8.25390625 13.48046875 C8.17011719 14.31191406 8.08632813 15.14335938 8 16 C7.67 16 7.34 16 7 16 C7 11.71 7 7.42 7 3 C4.69 2.34 2.38 1.68 0 1 C0 0.67 0 0.34 0 0 Z " fill="#353642" transform="translate(253,528)"/>
<path d="M0 0 C0.99 0.33 1.98 0.66 3 1 C0.14723863 3.93200474 -2.65079784 6.64315404 -6 9 C-6.66 8.67 -7.32 8.34 -8 8 C-5.36 5.36 -2.72 2.72 0 0 Z " fill="#1D1F24" transform="translate(800,523)"/>
<path d="M0 0 C0.99 0.33 1.98 0.66 3 1 C3 1.66 3 2.32 3 3 C3.66 3 4.32 3 5 3 C5.33 3.99 5.66 4.98 6 6 C7.62652316 7.70586575 9.29006566 9.3777546 11 11 C8.08728356 9.65319085 5.70671723 8.12551255 3.25 6.0625 C2.63640625 5.55847656 2.0228125 5.05445313 1.390625 4.53515625 C0 3 0 3 0 0 Z " fill="#7D8DA0" transform="translate(481,749)"/>
<path d="M0 0 C-2.64 2.64 -5.28 5.28 -8 8 C-8.66 7.67 -9.32 7.34 -10 7 C-4.4 -2.2 -4.4 -2.2 0 0 Z " fill="#222429" transform="translate(719,665)"/>
<path d="M0 0 C2.02196167 2.02196167 2.67551358 3.25864486 3.6875 5.875 C3.95949219 6.55304687 4.23148438 7.23109375 4.51171875 7.9296875 C5.07336741 10.31107782 4.76694846 11.70430191 4 14 C2.57385216 11.36711169 1.41456868 8.65544851 0.3125 5.875 C0.04050781 5.19179688 -0.23148438 4.50859375 -0.51171875 3.8046875 C-1 2 -1 2 0 0 Z " fill="#383C46" transform="translate(246,582)"/>
<path d="M0 0 C0.66 0.33 1.32 0.66 2 1 C1.25 5.75 1.25 5.75 -1 8 C-1 7.34 -1 6.68 -1 6 C-1.66 6 -2.32 6 -3 6 C-3 4.35 -3 2.7 -3 1 C-2.01 0.67 -1.02 0.34 0 0 Z " fill="#BAD1E9" transform="translate(291,526)"/>
<path d="M0 0 C0 0.99 0 1.98 0 3 C-2.75 5.75 -2.75 5.75 -6 8 C-7.32 7.67 -8.64 7.34 -10 7 C-6.7 4.69 -3.4 2.38 0 0 Z " fill="#26282A" transform="translate(566,257)"/>
<path d="M0 0 C0.66 0 1.32 0 2 0 C2 0.66 2 1.32 2 2 C2.66 2.33 3.32 2.66 4 3 C3.34 3.66 2.68 4.32 2 5 C2 5.66 2 6.32 2 7 C0.02 7.33 -1.96 7.66 -4 8 C-3.34 7.67 -2.68 7.34 -2 7 C-2 5.35 -2 3.7 -2 2 C-1.34 2 -0.68 2 0 2 C0 1.34 0 0.68 0 0 Z " fill="#31333E" transform="translate(125,181)"/>
<path d="M0 0 C1.485 0.99 1.485 0.99 3 2 C3.36792655 6.56228926 3.61838609 10.07242087 1 14 C0.04738513 9.23692563 -0.08333357 4.8333472 0 0 Z " fill="#3F414C" transform="translate(211,468)"/>
<path d="M0 0 C0.93423645 3.01031744 1.04449911 3.86650268 0 7 C-1.65 6.67 -3.3 6.34 -5 6 C-4.1875 3.5625 -4.1875 3.5625 -3 1 C-2.01 0.67 -1.02 0.34 0 0 Z " fill="#31343E" transform="translate(452,29)"/>
<path d="M0 0 C0.99 0.33 1.98 0.66 3 1 C1.71372289 2.17260611 0.42080217 3.3379283 -0.875 4.5 C-1.59429688 5.1496875 -2.31359375 5.799375 -3.0546875 6.46875 C-5 8 -5 8 -7 8 C-5.51218185 4.21282653 -3.38011591 2.22592999 0 0 Z " fill="#1E2227" transform="translate(578,778)"/>
<path d="M0 0 C0.95465783 2.16967689 1.14401212 3.56328793 0.3984375 5.82421875 C-0.35870385 7.5684743 -1.17609198 9.28627131 -2 11 C-3.0625 9.1875 -3.0625 9.1875 -4 7 C-3.67 6.01 -3.34 5.02 -3 4 C-2.34 4 -1.68 4 -1 4 C-0.67 2.68 -0.34 1.36 0 0 Z " fill="#DEE5EF" transform="translate(712,576)"/>
<path d="M0 0 C0.99 0.33 1.98 0.66 3 1 C2.34 2.32 1.68 3.64 1 5 C0.34 5 -0.32 5 -1 5 C-1.33 5.99 -1.66 6.98 -2 8 C-2.66 8 -3.32 8 -4 8 C-3.40072174 4.64404172 -2.15377564 2.62198774 0 0 Z " fill="#151920" transform="translate(223,414)"/>
<path d="M0 0 C0.99 0.33 1.98 0.66 3 1 C2.01 2.485 2.01 2.485 1 4 C0.34 4 -0.32 4 -1 4 C-1 4.99 -1 5.98 -1 7 C-2.65 7.33 -4.3 7.66 -6 8 C-4.02 5.36 -2.04 2.72 0 0 Z " fill="#2B3136" transform="translate(304,276)"/>
<path d="M0 0 C6.0546875 0.390625 6.0546875 0.390625 8 1 C8.66 2.32 9.32 3.64 10 5 C6.7 4.01 3.4 3.02 0 2 C0 1.34 0 0.68 0 0 Z " fill="#C9CEDC" transform="translate(411,689)"/>
<path d="M0 0 C0.66 0 1.32 0 2 0 C3.5078125 1.75 3.5078125 1.75 5.125 4 C5.66382813 4.7425 6.20265625 5.485 6.7578125 6.25 C7.16773438 6.8275 7.57765625 7.405 8 8 C5.03824877 7.38722388 3.61941217 6.74627478 1 5 C1 4.34 1 3.68 1 3 C0.34 3 -0.32 3 -1 3 C-0.67 2.01 -0.34 1.02 0 0 Z " fill="#23292F" transform="translate(817,322)"/>
<path d="M0 0 C0.99 0 1.98 0 3 0 C3.33 1.65 3.66 3.3 4 5 C3.34 5 2.68 5 2 5 C2.33 5.99 2.66 6.98 3 8 C2.34 8 1.68 8 1 8 C0.67 7.01 0.34 6.02 0 5 C0.33 4.34 0.66 3.68 1 3 C0.34 2.67 -0.32 2.34 -1 2 C-0.67 1.34 -0.34 0.68 0 0 Z M5 2 C5.66 2.33 6.32 2.66 7 3 C6.01 3 5.02 3 4 3 C4.33 2.67 4.66 2.34 5 2 Z " fill="#32343F" transform="translate(573,100)"/>
<path d="M0 0 C1.65 0 3.3 0 5 0 C5.33 0.99 5.66 1.98 6 3 C4.35 3.66 2.7 4.32 1 5 C0.67 3.35 0.34 1.7 0 0 Z M6 0 C6.99 0 7.98 0 9 0 C8.67 0.99 8.34 1.98 8 3 C7.34 2.67 6.68 2.34 6 2 C6 1.34 6 0.68 6 0 Z " fill="#31343E" transform="translate(428,1)"/>
<path d="M0 0 C-1.65 1.65 -3.3 3.3 -5 5 C-5.99 4.34 -6.98 3.68 -8 3 C-8 2.34 -8 1.68 -8 1 C-5.29120665 -0.35439668 -2.99066732 -0.06501451 0 0 Z " fill="#31343E" transform="translate(104,1)"/>
<path d="M0 0 C0.99 0.33 1.98 0.66 3 1 C-1.455 4.465 -1.455 4.465 -6 8 C-6.66 7.67 -7.32 7.34 -8 7 C-6.74057614 5.80040625 -5.46704714 4.61560557 -4.1875 3.4375 C-3.12595703 2.44556641 -3.12595703 2.44556641 -2.04296875 1.43359375 C-1.36878906 0.96050781 -0.69460938 0.48742187 0 0 Z " fill="#24272D" transform="translate(561,792)"/>
<path d="M0 0 C0.66 0 1.32 0 2 0 C0.64978174 4.41889613 -1.26115668 6.34345343 -5 9 C-4.42676569 5.13066838 -2.61046448 2.84777943 0 0 Z " fill="#131D25" transform="translate(687,625)"/>
<path d="M0 0 C0.99 0 1.98 0 3 0 C3.66 3.3 4.32 6.6 5 10 C2.08772731 6.71195019 0.50298788 4.40114397 0 0 Z " fill="#6D7B8F" transform="translate(236,482)"/>
<path d="M0 0 C1.875 0.25 1.875 0.25 4 1 C4.69937532 2.31647119 5.36729133 3.65022151 6 5 C6.99 5.33 7.98 5.66 9 6 C8.67 6.99 8.34 7.98 8 9 C6.66368764 7.6905332 5.33102075 6.37734515 4 5.0625 C3.2575 4.33160156 2.515 3.60070312 1.75 2.84765625 C0 1 0 1 0 0 Z " fill="#20242B" transform="translate(431,434)"/>
<path d="M0 0 C0.66 0 1.32 0 2 0 C2.22162329 1.62324086 2.42689803 3.248721 2.625 4.875 C2.74101563 5.77992188 2.85703125 6.68484375 2.9765625 7.6171875 C2.98429688 8.40351563 2.99203125 9.18984375 3 10 C2.34 10.66 1.68 11.32 1 12 C0.67 8.04 0.34 4.08 0 0 Z " fill="#303541" transform="translate(745,356)"/>
<path d="M0 0 C0 0.33 0 0.66 0 1 C-7.92 1.495 -7.92 1.495 -16 2 C-10.89004565 -3.10995435 -6.38230719 -1.80762513 0 0 Z " fill="#0F131A" transform="translate(621,350)"/>
<path d="M0 0 C0.66 0 1.32 0 2 0 C2.45572917 1.98567708 2.91145833 3.97135417 3.3671875 5.95703125 C3.98007723 8.27742974 3.98007723 8.27742974 6 11 C3.53199953 9.84826645 1.95216435 8.95216435 0 7 C-0.125 3.375 -0.125 3.375 0 0 Z " fill="#131C22" transform="translate(764,265)"/>
<path d="M0 0 C0.33 0 0.66 0 1 0 C1.66 2.31 2.32 4.62 3 7 C1.75 8.5625 1.75 8.5625 0 10 C-2.1875 9.6875 -2.1875 9.6875 -4 9 C-3.525625 8.62875 -3.05125 8.2575 -2.5625 7.875 C-0.47794198 5.37353038 -0.35378509 3.18406582 0 0 Z " fill="#333640" transform="translate(840,266)"/>
<path d="M0 0 C0.66 0 1.32 0 2 0 C2.28875 0.61875 2.5775 1.2375 2.875 1.875 C3.93720042 4.13325765 3.93720042 4.13325765 6 6 C5.34 7.65 4.68 9.3 4 11 C3.67 11 3.34 11 3 11 C0.85714286 3.57142857 0.85714286 3.57142857 0 0 Z " fill="#181C29" transform="translate(838,260)"/>
<path d="M0 0 C0.66 0.33 1.32 0.66 2 1 C1.67 1.66 1.34 2.32 1 3 C1.66 3 2.32 3 3 3 C3.33 3.99 3.66 4.98 4 6 C1.69 5.67 -0.62 5.34 -3 5 C-3 3.68 -3 2.36 -3 1 C-2.01 0.67 -1.02 0.34 0 0 Z " fill="#31343F" transform="translate(88,169)"/>
<path d="M0 0 C0.66 0 1.32 0 2 0 C2.66 1.65 3.32 3.3 4 5 C2.576875 5.2165625 2.576875 5.2165625 1.125 5.4375 C-1.8934494 5.82935399 -1.8934494 5.82935399 -4 7 C-2.79618552 4.50638429 -1.54571278 2.31856917 0 0 Z " fill="#31343E" transform="translate(937,36)"/>
<path d="M0 0 C1.65 0.33 3.3 0.66 5 1 C2.47211993 3.79872437 0.79588866 5.45773019 -3 6 C-3 5.01 -3 4.02 -3 3 C-2.34 3 -1.68 3 -1 3 C-0.67 2.01 -0.34 1.02 0 0 Z " fill="#31343E" transform="translate(714,3)"/>
<path d="M0 0 C-1 3 -1 3 -2.84765625 4.16796875 C-3.57855469 4.50441406 -4.30945313 4.84085938 -5.0625 5.1875 C-5.79597656 5.53167969 -6.52945313 5.87585938 -7.28515625 6.23046875 C-8.13400391 6.61138672 -8.13400391 6.61138672 -9 7 C-6.9696035 2.63239154 -5.10341613 0 0 0 Z " fill="#1C1D23" transform="translate(620,746)"/>
<path d="M0 0 C0.33 0.66 0.66 1.32 1 2 C1.66 2.33 2.32 2.66 3 3 C2.34 3.66 1.68 4.32 1 5 C0.35232207 7.57061311 0.35232207 7.57061311 0 10 C-0.99 10.33 -1.98 10.66 -3 11 C-2.01 7.37 -1.02 3.74 0 0 Z " fill="#D1D6DE" transform="translate(741,576)"/>
<path d="M0 0 C0.33 0 0.66 0 1 0 C1.22281874 1.91503674 1.42771076 3.83216506 1.625 5.75 C1.74101563 6.81734375 1.85703125 7.8846875 1.9765625 8.984375 C2.00029475 12.03792399 1.61420985 13.46162421 0 16 C-0.9360342 12.20732808 -0.98276252 9.06325435 -0.5625 5.1875 C-0.40974609 3.72376953 -0.40974609 3.72376953 -0.25390625 2.23046875 C-0.12822266 1.12638672 -0.12822266 1.12638672 0 0 Z " fill="#414B56" transform="translate(769,545)"/>
<path d="M0 0 C3.2542015 2.83430453 4.5206753 4.68607774 5 9 C4.01 9.33 3.02 9.66 2 10 C1.34 6.7 0.68 3.4 0 0 Z " fill="#111725" transform="translate(795,305)"/>
<path d="M0 0 C1.41823316 0.08006155 2.83603027 0.17654137 4.25 0.3125 C3.65316406 0.60898437 3.05632813 0.90546875 2.44140625 1.2109375 C0.67851248 2.097098 -1.06957495 3.01268263 -2.8125 3.9375 C-5.75 5.3125 -5.75 5.3125 -8.75 5.3125 C-6.33348981 1.10987358 -4.73606739 -0.03729187 0 0 Z " fill="#121E28" transform="translate(775.75,255.6875)"/>
<path d="M0 0 C-4.04479388 1.96611502 -6.86885748 2.11331236 -11.3125 1.625 C-12.38113281 1.51414062 -13.44976562 1.40328125 -14.55078125 1.2890625 C-15.35902344 1.19367187 -16.16726563 1.09828125 -17 1 C-17 0.67 -17 0.34 -17 0 C-14.9174133 -0.19561869 -12.83388144 -0.38119313 -10.75 -0.5625 C-9.58984375 -0.66691406 -8.4296875 -0.77132812 -7.234375 -0.87890625 C-4.48128523 -0.98198087 -2.580018 -0.86213473 0 0 Z " fill="#151A22" transform="translate(518,826)"/>
<path d="M0 0 C-2.06756277 2.7972908 -3.14440371 3.02692273 -6.6875 3.6875 C-7.780625 3.790625 -8.87375 3.89375 -10 4 C-6.87839899 0.56623888 -4.64008112 -1.54669371 0 0 Z " fill="#1F242C" transform="translate(529,821)"/>
<path d="M0 0 C4.41889613 1.35021826 6.34345343 3.26115668 9 7 C5.56072421 5.7580393 2.74792181 4.44259716 0 2 C0 1.34 0 0.68 0 0 Z " fill="#202330" transform="translate(422,769)"/>
<path d="M0 0 C-1.5830577 4.2742558 -4.50568404 6.26531794 -8 9 C-7.53918323 4.85264908 -4.48412936 0 0 0 Z " fill="#63738A" transform="translate(552,732)"/>
<path d="M0 0 C0.99 0.33 1.98 0.66 3 1 C-0.465 3.97 -0.465 3.97 -4 7 C-4.33 6.01 -4.66 5.02 -5 4 C-2.6875 1.9375 -2.6875 1.9375 0 0 Z " fill="#1F2025" transform="translate(663,709)"/>
<path d="M0 0 C0.66 0.66 1.32 1.32 2 2 C-1.465 4.97 -1.465 4.97 -5 8 C-5 5 -5 5 -2.5 2.3125 C-1.675 1.549375 -0.85 0.78625 0 0 Z " fill="#21272B" transform="translate(436,539)"/>
<path d="M0 0 C0.33 0.99 0.66 1.98 1 3 C1.78375 3.0825 2.5675 3.165 3.375 3.25 C6 4 6 4 7.3125 6.0625 C7.6528125 7.0215625 7.6528125 7.0215625 8 8 C4.06326356 6.68775452 1.77280706 5.08089673 -1 2 C-0.67 1.34 -0.34 0.68 0 0 Z " fill="#5D6E86" transform="translate(244,492)"/>
<path d="M0 0 C4.37859255 0.50522222 6.81651224 3.17827222 10 6 C9.01 6.33 8.02 6.66 7 7 C5.17578125 5.8203125 5.17578125 5.8203125 3.3125 4.125 C2.68988281 3.57070313 2.06726563 3.01640625 1.42578125 2.4453125 C0 1 0 1 0 0 Z " fill="#A1B2D0" transform="translate(759,425)"/>
<path d="M0 0 C0.66 0.99 1.32 1.98 2 3 C0.68 4.32 -0.64 5.64 -2 7 C-2.99 6.67 -3.98 6.34 -5 6 C-4.01 5.67 -3.02 5.34 -2 5 C-2 4.34 -2 3.68 -2 3 C-2.99 2.67 -3.98 2.34 -5 2 C-3.35 1.34 -1.7 0.68 0 0 Z " fill="#242A31" transform="translate(778,303)"/>
<path d="M0 0 C1.98 0.495 1.98 0.495 4 1 C2.63016497 4.16115776 2.0109362 4.9927092 -1 7 C-1.125 2.25 -1.125 2.25 0 0 Z " fill="#33383A" transform="translate(293,250)"/>
<path d="M0 0 C4.38889325 0.66498383 7.9811485 2.18757677 12 4 C9 5 9 5 5 5 C3.375 3.625 3.375 3.625 2 2 C1.34 1.34 0.68 0.68 0 0 Z " fill="#C5CAD2" transform="translate(412,649)"/>
<path d="M0 0 C0.66 0 1.32 0 2 0 C1.67 3.3 1.34 6.6 1 10 C0.34 9.34 -0.32 8.68 -1 8 C-0.96712417 5.27130593 -0.43602229 2.7033382 0 0 Z " fill="#26313C" transform="translate(719,554)"/>
<path d="M0 0 C0.99 0.33 1.98 0.66 3 1 C2.34 3.31 1.68 5.62 1 8 C0.34 8 -0.32 8 -1 8 C-1.125 2.25 -1.125 2.25 0 0 Z " fill="#2B2F35" transform="translate(648,495)"/>
<path d="M0 0 C0.99 0.33 1.98 0.66 3 1 C4.125 6.75 4.125 6.75 3 9 C2.34 9 1.68 9 1 9 C1.33 6.69 1.66 4.38 2 2 C1.34 2 0.68 2 0 2 C0 1.34 0 0.68 0 0 Z " fill="#31343E" transform="translate(84,70)"/>
<path d="M0 0 C0.99 0 1.98 0 3 0 C1.60667426 3.36720387 0.0210714 4.9859524 -3 7 C-3.66 6.34 -4.32 5.68 -5 5 C-3.68 4.67 -2.36 4.34 -1 4 C-0.67 2.68 -0.34 1.36 0 0 Z " fill="#708298" transform="translate(541,740)"/>
<path d="M0 0 C5.445 1.485 5.445 1.485 11 3 C11 3.33 11 3.66 11 4 C8.03 4 5.06 4 2 4 C2 3.34 2 2.68 2 2 C1.34 2 0.68 2 0 2 C0 1.34 0 0.68 0 0 Z " fill="#2A394C" transform="translate(544,721)"/>
<path d="M0 0 C1.98 0 3.96 0 6 0 C6.33 0.99 6.66 1.98 7 3 C5.02 3.33 3.04 3.66 1 4 C0.67 2.68 0.34 1.36 0 0 Z " fill="#3D4251" transform="translate(528,707)"/>
<path d="M0 0 C0.66 0 1.32 0 2 0 C2.99 2.97 3.98 5.94 5 9 C4.01 8.67 3.02 8.34 2 8 C0.5522078 5.10441559 0 3.25811062 0 0 Z " fill="#333743" transform="translate(251,597)"/>
<path d="M0 0 C0.6875 1.625 0.6875 1.625 1 4 C-0.4375 7.25 -0.4375 7.25 -2 10 C-2.66 10 -3.32 10 -4 10 C-2.99806563 6.20696275 -2.18975773 3.28463659 0 0 Z " fill="#DAE3EC" transform="translate(707,589)"/>
<path d="M0 0 C0.33 0 0.66 0 1 0 C1 3.3 1 6.6 1 10 C-0.65 9.01 -2.3 8.02 -4 7 C-2.68 6.67 -1.36 6.34 0 6 C0 4.02 0 2.04 0 0 Z " fill="#61718C" transform="translate(256,494)"/>
<path d="M0 0 C0.33 0 0.66 0 1 0 C1.33 2.97 1.66 5.94 2 9 C1.01 9.33 0.02 9.66 -1 10 C-2.15837626 5.94568308 -1.83691257 3.78187881 0 0 Z " fill="#333945" transform="translate(188,430)"/>
<path d="M0 0 C1.32 0.33 2.64 0.66 4 1 C3.67 2.32 3.34 3.64 3 5 C1.35 4.67 -0.3 4.34 -2 4 C-1.34 2.68 -0.68 1.36 0 0 Z " fill="#20252D" transform="translate(801,255)"/>
<path d="M0 0 C0.66 0 1.32 0 2 0 C2 1.98 2 3.96 2 6 C1.01 6 0.02 6 -1 6 C-1.625 4.125 -1.625 4.125 -2 2 C-1.34 1.34 -0.68 0.68 0 0 Z " fill="#32353F" transform="translate(1021,47)"/>
<path d="M0 0 C1.65 0 3.3 0 5 0 C5 0.99 5 1.98 5 3 C3.02 3.99 3.02 3.99 1 5 C1 4.34 1 3.68 1 3 C0.34 2.67 -0.32 2.34 -1 2 C-0.67 1.34 -0.34 0.68 0 0 Z " fill="#31343E" transform="translate(89,1)"/>
<path d="M0 0 C3.4375 0.8125 3.4375 0.8125 7 2 C7.33 2.99 7.66 3.98 8 5 C7.01 5.33 6.02 5.66 5 6 C2.3125 4.1875 2.3125 4.1875 0 2 C0 1.34 0 0.68 0 0 Z " fill="#727F95" transform="translate(498,764)"/>
<path d="M0 0 C0.66 0.33 1.32 0.66 2 1 C-1.32307692 5.8 -1.32307692 5.8 -4.75 6.8125 C-5.4925 6.874375 -6.235 6.93625 -7 7 C-4.66666667 4.66666667 -2.33333333 2.33333333 0 0 Z " fill="#DBE2E6" transform="translate(583,538)"/>
<path d="M0 0 C0.99 0 1.98 0 3 0 C1.70700306 2.88437779 0.34058637 4.87219421 -2 7 C-1.125 1.125 -1.125 1.125 0 0 Z " fill="#23262C" transform="translate(805,515)"/>
<path d="M0 0 C0.99 0.33 1.98 0.66 3 1 C2.6875 3.375 2.6875 3.375 2 6 C1.01 6.66 0.02 7.32 -1 8 C-1.125 2.25 -1.125 2.25 0 0 Z " fill="#45454A" transform="translate(311,348)"/>
<path d="M0 0 C1.485 0.99 1.485 0.99 3 2 C2.625 4.4375 2.625 4.4375 2 7 C1.01 7.495 1.01 7.495 0 8 C0 5.36 0 2.72 0 0 Z " fill="#171E2B" transform="translate(796,273)"/>
<path d="M0 0 C0.99 0.33 1.98 0.66 3 1 C2.34 2.32 1.68 3.64 1 5 C0.34 5 -0.32 5 -1 5 C-1 4.34 -1 3.68 -1 3 C-1.66 3 -2.32 3 -3 3 C-2 1 -2 1 0 0 Z " fill="#333641" transform="translate(898,63)"/>
<path d="M0 0 C3.91402949 1.26941497 5.79072873 2.51167694 8 6 C4.74456771 5.65120368 3.98126893 4.97866739 1.75 2.4375 C1.1725 1.633125 0.595 0.82875 0 0 Z " fill="#0E1519" transform="translate(453,764)"/>
<path d="M0 0 C0.99 0.33 1.98 0.66 3 1 C0.36 2.98 -2.28 4.96 -5 7 C-3.38262276 3.76524552 -2.52370777 2.29427979 0 0 Z " fill="#16181B" transform="translate(704,675)"/>
<path d="M0 0 C0.66 0.33 1.32 0.66 2 1 C0.1875 3 0.1875 3 -2 5 C-2.99 5 -3.98 5 -5 5 C-4.1875 3.0625 -4.1875 3.0625 -3 1 C-2.01 0.67 -1.02 0.34 0 0 Z " fill="#131D24" transform="translate(669,646)"/>
<path d="M0 0 C2.50298434 2.93828597 3.46930939 5.17902761 4 9 C3.34 7.68 2.68 6.36 2 5 C1.01 5 0.02 5 -1 5 C-0.67 3.35 -0.34 1.7 0 0 Z " fill="#BAC6D2" transform="translate(301,535)"/>
<path d="M0 0 C0.33 0 0.66 0 1 0 C1.74926071 3.66305234 2.2380014 6.42355152 1 10 C0.34 10 -0.32 10 -1 10 C-0.67 6.7 -0.34 3.4 0 0 Z " fill="#42474B" transform="translate(817,484)"/>
<path d="M0 0 C5.875 3.625 5.875 3.625 7 7 C4.13302508 5.71480435 2.02392288 4.42870746 0 2 C0 1.34 0 0.68 0 0 Z " fill="#111A1F" transform="translate(833,307)"/>
<path d="M0 0 C0.763125 0.20625 1.52625 0.4125 2.3125 0.625 C2.6425 1.615 2.9725 2.605 3.3125 3.625 C-1.1425 2.635 -1.1425 2.635 -5.6875 1.625 C-2.6875 -0.375 -2.6875 -0.375 0 0 Z " fill="#404643" transform="translate(635.6875,282.375)"/>
<path d="M0 0 C1.32 0 2.64 0 4 0 C4.66 0.99 5.32 1.98 6 3 C5.67 3.99 5.34 4.98 5 6 C3.2925002 4.71937515 1.62626404 3.38232443 0 2 C0 1.34 0 0.68 0 0 Z " fill="#31373F" transform="translate(701,240)"/>
</svg>
